<svg width="74" height="81" viewBox="0 0 74 81" fill="none" xmlns="http://www.w3.org/2000/svg">
<path d="M37.0007 35.6807C36.3681 35.6807 35.7417 35.8053 35.1573 36.0473C34.5728 36.2894 34.0418 36.6442 33.5945 37.0916C33.1472 37.5389 32.7924 38.0699 32.5503 38.6543C32.3082 39.2388 32.1836 39.8652 32.1836 40.4977C32.1836 41.1303 32.3082 41.7567 32.5503 42.3412C32.7924 42.9256 33.1472 43.4566 33.5945 43.9039C34.0418 44.3512 34.5728 44.7061 35.1573 44.9482C35.7417 45.1902 36.3681 45.3148 37.0007 45.3148C38.2782 45.3148 39.5035 44.8073 40.4069 43.9039C41.3102 43.0006 41.8178 41.7753 41.8178 40.4977C41.8178 39.2202 41.3102 37.9949 40.4069 37.0916C39.5035 36.1882 38.2782 35.6807 37.0007 35.6807Z" fill="#9EA0A4"/>
<path d="M72.9253 22.1587C70.2523 16.9291 60.4595 17.3132 49.1305 20.692C46.991 9.06318 42.8815 0.166016 36.9984 0.166016C31.1161 0.166016 27.0067 9.06135 24.8681 20.6884C13.54 17.3068 3.7472 16.919 1.07237 22.1587C-1.3788 26.9639 3.51437 33.8425 11.5792 40.4966C3.51346 47.1507 -1.37971 54.0294 1.07237 58.8345C2.42812 61.4938 5.66212 62.844 10.5525 62.844C12.429 62.844 14.5501 62.6479 16.9014 62.2473C19.3965 61.821 22.0815 61.1592 24.8718 60.3269C27.0113 71.9447 31.1189 80.8327 36.9984 80.8327C42.8779 80.8327 46.9864 71.9447 49.1259 60.3259C51.9153 61.1592 54.6002 61.8201 57.0963 62.2464C59.4485 62.6479 61.5687 62.8431 63.4451 62.8431C68.3337 62.8431 71.5695 61.4929 72.9253 58.8336C74.8017 55.1559 72.5449 50.0327 66.3995 44.0157C65.1376 42.7879 63.8246 41.6135 62.4643 40.4957C63.8243 39.3774 65.1371 38.203 66.3995 36.9757C72.5449 30.9605 74.8017 25.8373 72.9253 22.1587ZM36.9984 3.75843C39.9299 3.75843 43.6543 10.3263 45.7076 21.7856C42.7583 22.7972 39.8529 23.9328 36.9993 25.1892C34.1451 23.9317 31.2391 22.7953 28.2891 21.7829C30.3434 10.3264 34.0669 3.75843 36.9984 3.75843ZM47.2421 40.4994C47.2421 42.6343 47.1899 44.6922 47.0909 46.6685C45.304 47.6982 43.4915 48.6828 41.655 49.6211C40.1188 50.4009 38.5662 51.1482 36.9984 51.8624C35.4305 51.1482 33.878 50.4009 32.3417 49.6211C30.5057 48.6848 28.6932 47.7031 26.9059 46.6768C26.8037 44.6192 26.753 42.5594 26.7537 40.4994C26.7537 38.3589 26.8069 36.2974 26.9059 34.3164C30.1889 32.431 33.5563 30.6964 36.9975 29.118C40.4405 30.6962 43.8083 32.4336 47.09 34.3247C47.1926 36.3813 47.2433 38.4402 47.2421 40.4994ZM50.7722 36.5384C52.7668 37.7866 54.7154 39.1069 56.6141 40.4966C54.7153 41.8861 52.7667 43.2064 50.7722 44.4548C50.8602 41.8167 50.8602 39.1765 50.7722 36.5384ZM46.792 50.9677C46.6548 52.5244 46.4812 54.0776 46.2714 55.6262C44.6243 55.0475 42.9924 54.4264 41.3773 53.7635C42.0153 53.4509 42.6533 53.1484 43.2913 52.823C44.4677 52.2226 45.6347 51.6041 46.792 50.9677ZM32.6204 53.7635C31.0048 54.426 29.3726 55.0471 27.7254 55.6262C27.5151 54.0752 27.3415 52.5195 27.2047 50.9604C28.3634 51.6011 29.5321 52.2235 30.7064 52.823C31.3444 53.1494 31.9824 53.4519 32.6204 53.7635ZM23.2245 44.4621C21.2276 43.2127 19.2774 41.89 17.378 40.4966C19.2774 39.1033 21.2276 37.7805 23.2245 36.5311C23.18 37.8534 23.1574 39.1763 23.1567 40.4994C23.1567 41.8175 23.1805 43.1403 23.2245 44.4621ZM27.2047 30.0329C27.3486 28.4085 27.5237 26.8474 27.7272 25.3569C29.2993 25.906 30.9346 26.5303 32.6185 27.2187C31.9778 27.5313 31.3389 27.8475 30.7064 28.1702C29.5291 28.7721 28.3618 29.3931 27.2047 30.0329ZM43.2913 28.1702C42.6588 27.8475 42.0199 27.5313 41.3791 27.2187C43.0621 26.5303 44.6975 25.906 46.2695 25.3569C46.473 26.8456 46.6472 28.4039 46.7911 30.0255C45.6342 29.3889 44.4675 28.7704 43.2913 28.1702ZM4.27612 23.7949C4.93612 22.5006 7.12237 21.7673 10.5159 21.7673C13.9662 21.7673 18.6742 22.5364 24.287 24.2377C23.9157 26.8154 23.638 29.4902 23.4491 32.2008C20.2655 34.1157 17.2231 36.1507 14.4511 38.237C6.53387 31.8194 3.03954 26.2168 4.27612 23.7949ZM16.2964 58.6988C8.66054 59.9987 5.08279 58.7795 4.27612 57.1983C3.03954 54.7764 6.53387 49.1738 14.4511 42.7553C17.2231 44.8416 20.2655 46.8775 23.4491 48.7915C23.638 51.5003 23.9157 54.1733 24.286 56.75C21.4783 57.6053 18.786 58.2735 16.2964 58.6988ZM36.9984 77.2403C34.0678 77.2403 30.3461 70.6779 28.2919 59.2296C31.2417 58.2152 34.1466 57.0744 36.9984 55.8104C39.8501 57.0747 42.7549 58.2155 45.7049 59.2296C43.6506 70.6779 39.929 77.2403 36.9984 77.2403ZM63.8824 46.586C69.4154 51.9999 70.5273 55.6179 69.7206 57.1992C68.914 58.7795 65.338 60.0088 57.7004 58.6998C55.2107 58.2744 52.5185 57.6053 49.7107 56.7509C50.081 54.1806 50.3579 51.5131 50.5467 48.8108C53.8018 46.8647 56.8369 44.8343 59.574 42.7754C61.07 43.9763 62.5077 45.248 63.8824 46.586ZM59.575 38.2196C56.8378 36.1608 53.8027 34.1304 50.5476 32.1834C50.3588 29.4792 50.081 26.8108 49.7107 24.2386C55.3244 22.5364 60.0324 21.7673 63.4827 21.7673C66.8744 21.7673 69.0615 22.4997 69.7215 23.7949C70.5282 25.3753 69.4163 28.9934 63.8833 34.4072C62.5078 35.7449 61.0701 37.0171 59.575 38.2196Z" fill="#9EA0A4"/>
</svg>
