<svg width="22" height="16" viewBox="0 0 22 16" fill="none" xmlns="http://www.w3.org/2000/svg">
<path d="M19 15.75H3C2.27147 15.7474 1.57352 15.4568 1.05837 14.9416C0.543212 14.4265 0.252635 13.7285 0.25 13V3C0.252635 2.27147 0.543212 1.57352 1.05837 1.05837C1.57352 0.543212 2.27147 0.252635 3 0.25H19C19.7285 0.252635 20.4265 0.543212 20.9416 1.05837C21.4568 1.57352 21.7474 2.27147 21.75 3V13C21.7474 13.7285 21.4568 14.4265 20.9416 14.9416C20.4265 15.4568 19.7285 15.7474 19 15.75ZM3 1.75C2.66848 1.75 2.35054 1.8817 2.11612 2.11612C1.8817 2.35054 1.75 2.66848 1.75 3V13C1.75 13.3315 1.8817 13.6495 2.11612 13.8839C2.35054 14.1183 2.66848 14.25 3 14.25H19C19.3315 14.25 19.6495 14.1183 19.8839 13.8839C20.1183 13.6495 20.25 13.3315 20.25 13V3C20.25 2.66848 20.1183 2.35054 19.8839 2.11612C19.6495 1.8817 19.3315 1.75 19 1.75H3Z" fill="#056DEA"/>
</svg>
