<svg width="43" height="42" viewBox="0 0 43 42" fill="none" xmlns="http://www.w3.org/2000/svg">
<g clip-path="url(#clip0_707_4632)">
<path d="M21.5 23.4607L31.3847 18.5389V6.1522L21.5 11.0741M21.5 23.4607V11.0741M21.5 23.4607L11.6152 18.5389V6.1522L21.5 11.0741M31.3847 40.7694L41.2694 35.8476V23.4609M31.3847 40.7694V28.3827M31.3847 40.7694L21.4999 35.8476M31.3847 28.3827L41.2694 23.4609M31.3847 28.3827L21.4999 23.4609M41.2694 23.4609L31.3847 18.539L21.4999 23.4609M21.4999 35.8476V23.4609M21.4999 35.8476L11.6152 40.7694M21.4999 23.4609L11.6152 28.3827M21.4999 23.4609L11.6152 18.539L1.73047 23.4609M11.6152 40.7694V28.3827M11.6152 40.7694L1.73047 35.8476V23.4609M11.6152 28.3827L1.73047 23.4609M31.3847 6.15233L21.4999 11.0742L11.6152 6.15233L21.4999 1.23047L31.3847 6.15233Z" stroke="#056DEA" stroke-width="2" stroke-miterlimit="10" stroke-linecap="round" stroke-linejoin="round"/>
</g>
<defs>
<clipPath id="clip0_707_4632">
<rect width="42" height="42" fill="white" transform="translate(0.5)"/>
</clipPath>
</defs>
</svg>
