<svg width="165" height="49" viewBox="0 0 165 49" fill="none" xmlns="http://www.w3.org/2000/svg">
<mask id="mask0_707_4839" style="mask-type:luminance" maskUnits="userSpaceOnUse" x="0" y="0" width="165" height="49">
<path d="M164.65 0.0253906H0V48.9754H164.65V0.0253906Z" fill="white"/>
</mask>
<g mask="url(#mask0_707_4839)">
<path d="M144.908 48.5911C144.482 48.5911 144.084 48.4769 143.716 48.2769L139.941 46.0211C139.374 45.7069 139.657 45.5927 139.828 45.5356C140.594 45.2785 140.736 45.2214 141.53 44.7645C141.615 44.7074 141.729 44.7361 141.814 44.7932L144.709 46.5351C144.822 46.5922 144.964 46.5922 145.049 46.5351L156.373 39.9385C156.486 39.8814 156.544 39.7672 156.544 39.6245V26.4601C156.544 26.3174 156.486 26.2031 156.373 26.146L145.049 19.5781C144.936 19.521 144.794 19.521 144.709 19.5781L133.385 26.146C133.272 26.2031 133.215 26.3458 133.215 26.4601V39.6245C133.215 39.7387 133.272 39.8814 133.385 39.9385L136.479 41.7377C138.153 42.5943 139.203 41.5948 139.203 40.5953V27.6024C139.203 27.4311 139.345 27.2597 139.544 27.2597H140.991C141.161 27.2597 141.332 27.4024 141.332 27.6024V40.5953C141.332 42.8513 140.111 44.1648 137.983 44.1648C137.33 44.1648 136.819 44.1648 135.372 43.4511L132.392 41.7377C131.654 41.3093 131.2 40.5098 131.2 39.653V26.4887C131.2 25.6319 131.654 24.8324 132.392 24.404L143.716 17.8076C144.425 17.4079 145.39 17.4079 146.099 17.8076L157.423 24.404C158.161 24.8324 158.614 25.6319 158.614 26.4887V39.653C158.614 40.5098 158.161 41.3093 157.423 41.7377L146.099 48.334C145.759 48.4769 145.333 48.5911 144.908 48.5911Z" fill="#9EA0A4"/>
<path d="M148.426 39.5373C143.459 39.5373 142.438 37.2529 142.438 35.311C142.438 35.1397 142.579 34.9684 142.778 34.9684H144.254C144.424 34.9684 144.566 35.0826 144.566 35.2539C144.793 36.7674 145.446 37.5099 148.454 37.5099C150.838 37.5099 151.86 36.9673 151.86 35.6823C151.86 34.9399 151.575 34.3973 147.858 34.026C144.765 33.7118 142.835 33.0265 142.835 30.5421C142.835 28.2291 144.765 26.8584 148 26.8584C151.633 26.8584 153.421 28.1149 153.648 30.8563C153.648 30.942 153.619 31.0276 153.563 31.1133C153.505 31.1704 153.421 31.2276 153.335 31.2276H151.83C151.69 31.2276 151.547 31.1133 151.519 30.9705C151.178 29.3999 150.298 28.886 147.972 28.886C145.361 28.886 145.048 29.7997 145.048 30.485C145.048 31.3131 145.417 31.5702 148.936 32.0271C152.427 32.4839 154.073 33.1408 154.073 35.5966C154.073 38.1095 152.001 39.5373 148.426 39.5373Z" fill="#9EA0A4"/>
<path d="M164.775 25.7163C164.775 26.9157 163.781 27.9152 162.588 27.9152C161.397 27.9152 160.403 26.9442 160.403 25.7163C160.403 24.4599 161.425 23.5176 162.588 23.5176C163.753 23.5176 164.775 24.4884 164.775 25.7163ZM160.744 25.7163C160.744 26.7444 161.568 27.5726 162.56 27.5726C163.582 27.5726 164.405 26.7158 164.405 25.7163C164.405 24.6884 163.582 23.8889 162.56 23.8889C161.596 23.8889 160.744 24.6884 160.744 25.7163ZM161.767 24.4884H162.618C162.901 24.4884 163.469 24.4884 163.469 25.1452C163.469 25.6021 163.185 25.6878 163.014 25.745C163.355 25.7734 163.383 26.002 163.412 26.316C163.44 26.516 163.469 26.8586 163.526 26.9729H163.014C163.014 26.8586 162.929 26.2304 162.929 26.2018C162.901 26.0591 162.845 26.002 162.674 26.002H162.249V27.0013H161.767V24.4884ZM162.22 25.5736H162.588C162.901 25.5736 162.958 25.3452 162.958 25.231C162.958 24.8883 162.731 24.8883 162.588 24.8883H162.192V25.5736H162.22Z" fill="#9EA0A4"/>
<path fill-rule="evenodd" clip-rule="evenodd" d="M26.9321 25.8968C26.9321 25.3828 26.6484 24.8975 26.1943 24.6404L14.1898 17.6441C13.9911 17.5299 13.7641 17.4728 13.537 17.4443C13.5087 17.4443 13.4235 17.4443 13.4235 17.4443C13.1965 17.4443 12.9695 17.5299 12.7708 17.6441L0.737868 24.6118C0.283796 24.8689 0 25.3544 0 25.8968L0.0283796 44.6297C0.0283796 44.8867 0.170278 45.1437 0.397314 45.2579C0.62435 45.4007 0.908146 45.4007 1.1068 45.2579L8.25844 41.1458C8.71252 40.8889 8.99631 40.4034 8.99631 39.8894V31.1226C8.99631 30.6086 9.2801 30.1231 9.73418 29.8662L12.7708 28.0957C12.9978 27.9529 13.2532 27.8958 13.5087 27.8958C13.7641 27.8958 14.0195 27.9529 14.2182 28.0957L17.2547 29.8662C17.7088 30.1231 17.9927 30.6086 17.9927 31.1226V39.8894C17.9927 40.4034 18.2764 40.8889 18.7305 41.1458L25.8254 45.2579C26.0524 45.4007 26.3361 45.4007 26.5632 45.2579C26.7903 45.1437 26.9321 44.8867 26.9321 44.6297V25.8968Z" fill="#9EA0A4"/>
<path fill-rule="evenodd" clip-rule="evenodd" d="M84.7703 0.111059C84.5432 -0.00316547 84.2594 -0.00316547 84.0607 0.111059C83.8337 0.253839 83.6918 0.482288 83.6918 0.739294V19.3007C83.6918 19.472 83.6066 19.6434 83.4363 19.7577C83.266 19.8433 83.0959 19.8433 82.9256 19.7577L79.9173 18.0157C79.4632 17.7588 78.924 17.7588 78.47 18.0157L66.437 25.012C65.983 25.2691 65.6992 25.7544 65.6992 26.2684V40.2323C65.6992 40.7465 65.983 41.2318 66.437 41.4889L78.47 48.4851C78.924 48.7421 79.4632 48.7421 79.9173 48.4851L91.9502 41.4889C92.4043 41.2318 92.6882 40.7465 92.6882 40.2323V5.4225C92.6882 4.87993 92.4043 4.39447 91.9502 4.13747L84.7703 0.111059ZM83.6634 35.6349C83.6634 35.7776 83.6066 35.8918 83.4931 35.9489L79.3781 38.3478C79.2646 38.4049 79.1226 38.4049 79.0092 38.3478L74.8941 35.9489C74.7806 35.8918 74.7238 35.7491 74.7238 35.6349V30.8375C74.7238 30.6946 74.7806 30.5804 74.8941 30.5233L79.0092 28.1246C79.1226 28.0675 79.2646 28.0675 79.3781 28.1246L83.4931 30.5233C83.6066 30.5804 83.6634 30.7233 83.6634 30.8375V35.6349Z" fill="#9EA0A4"/>
<path fill-rule="evenodd" clip-rule="evenodd" d="M124.813 30.7229C125.268 30.4658 125.523 29.9805 125.523 29.4664V26.0682C125.523 25.5542 125.239 25.0687 124.813 24.8118L112.866 17.8442C112.411 17.5871 111.872 17.5871 111.418 17.8442L99.3853 24.8403C98.9312 25.0974 98.6475 25.5829 98.6475 26.0968V40.0608C98.6475 40.5748 98.9312 41.0603 99.3853 41.3172L111.333 48.1706C111.787 48.4277 112.326 48.4277 112.752 48.1706L119.989 44.1158C120.216 44.0016 120.358 43.7445 120.358 43.4874C120.358 43.2305 120.216 42.9735 119.989 42.8592L107.899 35.863C107.672 35.7203 107.53 35.4918 107.53 35.2348V30.8658C107.53 30.6087 107.672 30.3516 107.899 30.2374L111.674 28.0671C111.901 27.9244 112.185 27.9244 112.411 28.0671L116.186 30.2374C116.413 30.3803 116.555 30.6087 116.555 30.8658V34.2924C116.555 34.5495 116.697 34.8064 116.924 34.9206C117.151 35.0634 117.435 35.0634 117.662 34.9206L124.813 30.7229Z" fill="#9EA0A4"/>
<path fill-rule="evenodd" clip-rule="evenodd" d="M111.959 30.0663C112.044 30.0092 112.158 30.0092 112.243 30.0663L114.542 31.4084C114.627 31.4655 114.684 31.5512 114.684 31.6655V34.3497C114.684 34.4639 114.627 34.5496 114.542 34.6068L112.243 35.9489C112.158 36.006 112.044 36.006 111.959 35.9489L109.66 34.6068C109.575 34.5496 109.519 34.4639 109.519 34.3497V31.6655C109.519 31.5512 109.575 31.4655 109.66 31.4084L111.959 30.0663Z" fill="#9EA0A4"/>
<path d="M47.052 17.9017C46.5978 17.6448 46.0586 17.6448 45.6045 17.9017L33.6567 24.8409C33.2027 25.0979 32.9473 25.5833 32.9473 26.0974V40.0041C32.9473 40.5182 33.231 41.0035 33.6567 41.2606L45.6045 48.1998C46.0586 48.4567 46.5978 48.4567 47.052 48.1998L58.9996 41.2606C59.4538 41.0035 59.7091 40.5182 59.7091 40.0041V26.0974C59.7091 25.5833 59.4254 25.0979 58.9996 24.8409L47.052 17.9017Z" fill="url(#paint0_linear_707_4839)"/>
<path d="M59.0294 24.8407L47.0249 17.9015C46.9114 17.8444 46.7695 17.7873 46.656 17.7588L33.2041 40.9178C33.3176 41.0605 33.4595 41.1747 33.6013 41.2604L45.606 48.1996C45.9465 48.3994 46.3438 48.4565 46.7127 48.3423L59.3416 25.0977C59.2565 24.9835 59.143 24.8978 59.0294 24.8407Z" fill="url(#paint1_linear_707_4839)"/>
<path d="M59.0276 41.2594C59.3682 41.0594 59.6236 40.7168 59.7371 40.3455L46.5973 17.7291C46.2569 17.672 45.8878 17.7005 45.5757 17.9004L33.6562 24.811L46.5122 48.3984C46.6824 48.3697 46.8812 48.3126 47.0515 48.227L59.0276 41.2594Z" fill="url(#paint2_linear_707_4839)"/>
</g>
<defs>
<linearGradient id="paint0_linear_707_4839" x1="51.1942" y1="23.0698" x2="40.2831" y2="45.1907" gradientUnits="userSpaceOnUse">
<stop stop-color="#9EA0A4"/>
<stop offset="0.3296" stop-color="#9DA0A3"/>
<stop offset="0.6367" stop-color="#39424A"/>
<stop offset="0.9341" stop-color="#383E44"/>
<stop offset="1" stop-color="#394047"/>
</linearGradient>
<linearGradient id="paint1_linear_707_4839" x1="44.5138" y1="34.6744" x2="74.9577" y2="12.3199" gradientUnits="userSpaceOnUse">
<stop offset="0.1376" stop-color="#9EA0A4"/>
<stop offset="0.4016" stop-color="#383D41"/>
<stop offset="0.7129" stop-color="#9EA1A4"/>
<stop offset="0.9081" stop-color="#9EA1A4"/>
</linearGradient>
<linearGradient id="paint2_linear_707_4839" x1="32.5087" y1="33.045" x2="60.1553" y2="33.045" gradientUnits="userSpaceOnUse">
<stop offset="0.0919165" stop-color="#9EA0A4"/>
<stop offset="0.2871" stop-color="#66686B"/>
<stop offset="0.5984" stop-color="#363636"/>
<stop offset="0.8624" stop-color="#394149"/>
</linearGradient>
</defs>
</svg>
