<svg width="179" height="89" viewBox="0 0 179 89" fill="none" xmlns="http://www.w3.org/2000/svg">
<path d="M43.7321 59.6935C42.9069 59.6935 42.1035 59.375 41.4883 58.767L22.7705 40.0492V56.4581C22.7705 58.1952 21.3518 59.6211 19.6074 59.6211C17.863 59.6211 16.4443 58.2821 16.4443 56.4581V32.4275C16.4443 31.1463 17.2188 29.9955 18.3986 29.5033C19.5784 29.0111 20.932 29.2861 21.844 30.1909L40.5618 48.9087V32.4275C40.5618 30.6903 41.9804 29.2644 43.7248 29.2644C45.4692 29.2644 46.8879 30.6831 46.8879 32.4275V56.4581C46.8879 58.1952 45.4692 59.6211 43.7248 59.6211M58.3676 29.221L57.499 30.8423L50.7675 43.0603L49.899 44.602L50.7675 46.1437L57.499 57.9636L58.4038 59.5849H75.9924L76.861 57.8044L81.8842 47.6854L84.1281 43.0965H79.0324L66.1847 43.1327C64.52 43.111 62.9782 44.6237 62.9782 46.2957C62.9782 47.9677 64.5127 49.4805 66.1847 49.4588L73.9295 49.4226L72.0331 53.2588H62.088L57.1443 44.5586L62.1241 35.5471H72.7208L75.1817 40.6138H81.5513L77.5414 31.0016L76.6728 29.221H58.3676ZM90.3963 29.1848C88.7315 29.2065 87.2549 30.7338 87.2839 32.384V40.6355H93.61V32.384C93.6317 30.7048 92.1624 29.1631 90.4107 29.1848M100.544 59.6935C98.807 59.6935 97.3811 58.2748 97.3811 56.5304V32.4781C97.3811 30.741 98.7997 29.3151 100.544 29.3151C102.289 29.3151 103.707 30.7338 103.707 32.4781V48.9594L122.425 30.2416C123.33 29.3368 124.691 29.069 125.87 29.5539C127.05 30.0389 127.825 31.197 127.825 32.4781V56.6028C127.825 58.34 126.406 59.7659 124.662 59.7659C122.917 59.7659 121.498 58.3472 121.498 56.6028V40.1144L102.781 58.8322C102.187 59.4257 101.384 59.7586 100.537 59.7586M151.24 44.5152L161.084 34.7147C162.314 33.4842 162.314 31.4793 161.091 30.2416C159.868 29.0038 157.856 29.0111 156.618 30.2343L146.774 40.0565L136.93 30.2343C135.7 29.0038 133.688 29.0038 132.457 30.2416C131.227 31.4793 131.227 33.4842 132.464 34.7147L142.308 44.5152L132.472 54.2866C131.241 55.5171 131.241 57.5221 132.464 58.7598C133.058 59.3605 133.861 59.7007 134.636 59.7007C135.41 59.7007 136.25 59.3967 136.865 58.7743L146.687 48.9811L156.509 58.7743C157.103 59.3678 157.906 59.7007 158.739 59.7007C159.571 59.7007 160.36 59.3895 160.91 58.7598C162.141 57.5293 162.141 55.5243 160.903 54.2866L151.095 44.5152M90.2515 59.6718C88.5867 59.6501 87.1102 58.1228 87.1391 56.4725V43.2268H93.4652V56.4581C93.487 58.1373 92.0176 59.679 90.266 59.6573" fill="#9EA0A4"/>
</svg>
