<svg width="147" height="31" viewBox="0 0 147 31" fill="none" xmlns="http://www.w3.org/2000/svg">
<path d="M27.7321 30.6935C26.9069 30.6935 26.1035 30.375 25.4883 29.767L6.77046 11.0492V27.4581C6.77046 29.1952 5.35179 30.6211 3.6074 30.6211C1.86301 30.6211 0.444336 29.2821 0.444336 27.4581V3.42748C0.444336 2.14633 1.21882 0.995468 2.39863 0.503276C3.57844 0.011083 4.93197 0.28613 5.84398 1.1909L24.5618 19.9087V3.42748C24.5618 1.69033 25.9804 0.264418 27.7248 0.264418C29.4692 0.264418 30.8879 1.68309 30.8879 3.42748V27.4581C30.8879 29.1952 29.4692 30.6211 27.7248 30.6211M42.3676 0.220988L41.499 1.84233L34.7675 14.0603L33.899 15.602L34.7675 17.1437L41.499 28.9636L42.4038 30.5849H59.9924L60.861 28.8044L65.8842 18.6854L68.1281 14.0965H63.0324L50.1847 14.1327C48.52 14.111 46.9782 15.6237 46.9782 17.2957C46.9782 18.9677 48.5127 20.4805 50.1847 20.4588L57.9295 20.4226L56.0331 24.2588H46.088L41.1443 15.5586L46.1241 6.54711H56.7208L59.1817 11.6138H65.5513L61.5414 2.00157L60.6728 0.220988H42.3676ZM74.3963 0.184797C72.7315 0.206511 71.2549 1.73376 71.2839 3.38405V11.6355H77.61V3.38405C77.6317 1.7048 76.1624 0.163083 74.4107 0.184797M84.5441 30.6935C82.807 30.6935 81.3811 29.2748 81.3811 27.5304V3.47814C81.3811 1.74099 82.7997 0.315084 84.5441 0.315084C86.2885 0.315084 87.7072 1.73376 87.7072 3.47814V19.9594L106.425 1.24156C107.33 0.336797 108.691 0.0689878 109.87 0.553942C111.05 1.0389 111.825 2.197 111.825 3.47814V27.6028C111.825 29.34 110.406 30.7659 108.662 30.7659C106.917 30.7659 105.498 29.3472 105.498 27.6028V11.1144L86.7807 29.8322C86.1872 30.4257 85.3838 30.7586 84.5369 30.7586M135.24 15.5152L145.084 5.71473C146.314 4.48424 146.314 2.47928 145.091 1.24156C143.868 0.00384316 141.856 0.0110818 140.618 1.23433L130.774 11.0565L120.93 1.23433C119.7 0.00384369 117.688 0.00384316 116.457 1.24156C115.227 2.47928 115.227 4.48424 116.464 5.71473L126.308 15.5152L116.472 25.2866C115.241 26.5171 115.241 28.5221 116.464 29.7598C117.058 30.3605 117.861 30.7007 118.636 30.7007C119.41 30.7007 120.25 30.3967 120.865 29.7743L130.687 19.9811L140.509 29.7743C141.103 30.3678 141.906 30.7007 142.739 30.7007C143.571 30.7007 144.36 30.3895 144.91 29.7598C146.141 28.5293 146.141 26.5243 144.903 25.2866L135.095 15.5152M74.2515 30.6718C72.5867 30.6501 71.1102 29.1228 71.1391 27.4725V14.2268H77.4652V27.4581C77.487 29.1373 76.0176 30.679 74.266 30.6573" fill="#9EA0A4"/>
</svg>
