<svg width="43" height="42" viewBox="0 0 43 42" fill="none" xmlns="http://www.w3.org/2000/svg">
<g clip-path="url(#clip0_707_4667)">
<path d="M32.0115 31.5144L36.1984 35.7013M6.79688 6.2998L10.9838 10.4867M10.9354 31.5627L6.79688 35.7013M36.1984 6.2998L32.0121 10.4861" stroke="#056DEA" stroke-width="2" stroke-miterlimit="10"/>
<path d="M7.38401 6.17997C8.39233 4.78101 8.07567 2.82952 6.67671 1.82119C5.27775 0.81286 3.32626 1.12953 2.31793 2.52849C1.3096 3.92744 1.62627 5.87894 3.02523 6.88727C4.42418 7.8956 6.37568 7.57893 7.38401 6.17997Z" stroke="#056DEA" stroke-width="2" stroke-miterlimit="10"/>
<path d="M7.384 39.4749C8.39233 38.0759 8.07567 36.1244 6.67671 35.1161C5.27775 34.1078 3.32626 34.4244 2.31793 35.8234C1.3096 37.2224 1.62627 39.1739 3.02522 40.1822C4.42418 41.1905 6.37568 40.8738 7.384 39.4749Z" stroke="#056DEA" stroke-width="2" stroke-miterlimit="10"/>
<path d="M40.6809 39.4768C41.6892 38.0779 41.3725 36.1264 39.9736 35.1181C38.5746 34.1097 36.6231 34.4264 35.6148 35.8254C34.6065 37.2243 34.9231 39.1758 36.3221 40.1841C37.7211 41.1925 39.6725 40.8758 40.6809 39.4768Z" stroke="#056DEA" stroke-width="2" stroke-miterlimit="10"/>
<path d="M40.6809 6.18095C41.6892 4.78199 41.3725 2.8305 39.9736 1.82217C38.5746 0.813838 36.6231 1.1305 35.6148 2.52946C34.6065 3.92842 34.9231 5.87991 36.3221 6.88824C37.7211 7.89657 39.6726 7.57991 40.6809 6.18095Z" stroke="#056DEA" stroke-width="2" stroke-miterlimit="10"/>
<path d="M21.5025 35.8701C29.7147 35.8701 36.3721 29.2128 36.3721 21.0005C36.3721 12.7882 29.7147 6.13086 21.5025 6.13086C13.2902 6.13086 6.63281 12.7882 6.63281 21.0005C6.63281 29.2128 13.2902 35.8701 21.5025 35.8701Z" stroke="#056DEA" stroke-width="2" stroke-miterlimit="10"/>
<path d="M21.5003 35.8701C24.9242 35.8701 27.6998 29.2128 27.6998 21.0005C27.6998 12.7882 24.9242 6.13086 21.5003 6.13086C18.0764 6.13086 15.3008 12.7882 15.3008 21.0005C15.3008 29.2128 18.0764 35.8701 21.5003 35.8701Z" stroke="#056DEA" stroke-width="2" stroke-miterlimit="10"/>
<path d="M7 21.001H36" stroke="#056DEA" stroke-width="2" stroke-miterlimit="10"/>
</g>
<defs>
<clipPath id="clip0_707_4667">
<rect width="42" height="42" fill="white" transform="translate(0.5)"/>
</clipPath>
</defs>
</svg>
