<svg width="88" height="89" viewBox="0 0 88 89" fill="none" xmlns="http://www.w3.org/2000/svg">
<path d="M44.0007 39.6807C43.3681 39.6807 42.7417 39.8053 42.1573 40.0473C41.5728 40.2894 41.0418 40.6442 40.5945 41.0916C40.1472 41.5389 39.7924 42.0699 39.5503 42.6543C39.3082 43.2388 39.1836 43.8652 39.1836 44.4977C39.1836 45.1303 39.3082 45.7567 39.5503 46.3412C39.7924 46.9256 40.1472 47.4566 40.5945 47.9039C41.0418 48.3512 41.5728 48.7061 42.1573 48.9482C42.7417 49.1902 43.3681 49.3148 44.0007 49.3148C45.2782 49.3148 46.5035 48.8073 47.4069 47.9039C48.3102 47.0006 48.8178 45.7753 48.8178 44.4977C48.8178 43.2202 48.3102 41.9949 47.4069 41.0916C46.5035 40.1882 45.2782 39.6807 44.0007 39.6807Z" fill="#9EA0A4"/>
<path d="M79.9253 26.1587C77.2523 20.9291 67.4595 21.3132 56.1305 24.692C53.991 13.0632 49.8815 4.16602 43.9984 4.16602C38.1161 4.16602 34.0067 13.0613 31.8681 24.6884C20.54 21.3068 10.7472 20.919 8.07237 26.1587C5.6212 30.9639 10.5144 37.8425 18.5792 44.4966C10.5135 51.1507 5.62029 58.0294 8.07237 62.8345C9.42812 65.4938 12.6621 66.844 17.5525 66.844C19.429 66.844 21.5501 66.6479 23.9014 66.2473C26.3965 65.821 29.0815 65.1592 31.8718 64.3269C34.0113 75.9447 38.1189 84.8327 43.9984 84.8327C49.8779 84.8327 53.9864 75.9447 56.1259 64.3259C58.9153 65.1592 61.6002 65.8201 64.0963 66.2464C66.4485 66.6479 68.5687 66.8431 70.4451 66.8431C75.3337 66.8431 78.5695 65.4929 79.9253 62.8336C81.8017 59.1559 79.5449 54.0327 73.3995 48.0157C72.1376 46.7879 70.8246 45.6135 69.4643 44.4957C70.8243 43.3774 72.1371 42.203 73.3995 40.9757C79.5449 34.9605 81.8017 29.8373 79.9253 26.1587ZM43.9984 7.75843C46.9299 7.75843 50.6543 14.3263 52.7076 25.7856C49.7583 26.7972 46.8529 27.9328 43.9993 29.1892C41.1451 27.9317 38.2391 26.7953 35.2891 25.7829C37.3434 14.3264 41.0669 7.75843 43.9984 7.75843ZM54.2421 44.4994C54.2421 46.6343 54.1899 48.6922 54.0909 50.6685C52.304 51.6982 50.4915 52.6828 48.655 53.6211C47.1188 54.4009 45.5662 55.1482 43.9984 55.8624C42.4305 55.1482 40.878 54.4009 39.3417 53.6211C37.5057 52.6848 35.6932 51.7031 33.9059 50.6768C33.8037 48.6192 33.753 46.5594 33.7537 44.4994C33.7537 42.3589 33.8069 40.2974 33.9059 38.3164C37.1889 36.431 40.5563 34.6964 43.9975 33.118C47.4405 34.6962 50.8083 36.4336 54.09 38.3247C54.1926 40.3813 54.2433 42.4402 54.2421 44.4994ZM57.7722 40.5384C59.7668 41.7866 61.7154 43.1069 63.6141 44.4966C61.7153 45.8861 59.7667 47.2064 57.7722 48.4548C57.8602 45.8167 57.8602 43.1765 57.7722 40.5384ZM53.792 54.9677C53.6548 56.5244 53.4812 58.0776 53.2714 59.6262C51.6243 59.0475 49.9924 58.4264 48.3773 57.7635C49.0153 57.4509 49.6533 57.1484 50.2913 56.823C51.4677 56.2226 52.6347 55.6041 53.792 54.9677ZM39.6204 57.7635C38.0048 58.426 36.3726 59.0471 34.7254 59.6262C34.5151 58.0752 34.3415 56.5195 34.2047 54.9604C35.3634 55.6011 36.5321 56.2235 37.7064 56.823C38.3444 57.1494 38.9824 57.4519 39.6204 57.7635ZM30.2245 48.4621C28.2276 47.2127 26.2774 45.89 24.378 44.4966C26.2774 43.1033 28.2276 41.7805 30.2245 40.5311C30.18 41.8534 30.1574 43.1763 30.1567 44.4994C30.1567 45.8175 30.1805 47.1403 30.2245 48.4621ZM34.2047 34.0329C34.3486 32.4085 34.5237 30.8474 34.7272 29.3569C36.2993 29.906 37.9346 30.5303 39.6185 31.2187C38.9778 31.5313 38.3389 31.8475 37.7064 32.1702C36.5291 32.7721 35.3618 33.3931 34.2047 34.0329ZM50.2913 32.1702C49.6588 31.8475 49.0199 31.5313 48.3791 31.2187C50.0621 30.5303 51.6975 29.906 53.2695 29.3569C53.473 30.8456 53.6472 32.4039 53.7911 34.0255C52.6342 33.3889 51.4675 32.7704 50.2913 32.1702ZM11.2761 27.7949C11.9361 26.5006 14.1224 25.7673 17.5159 25.7673C20.9662 25.7673 25.6742 26.5364 31.287 28.2377C30.9157 30.8154 30.638 33.4902 30.4491 36.2008C27.2655 38.1157 24.2231 40.1507 21.4511 42.237C13.5339 35.8194 10.0395 30.2168 11.2761 27.7949ZM23.2964 62.6988C15.6605 63.9987 12.0828 62.7795 11.2761 61.1983C10.0395 58.7764 13.5339 53.1738 21.4511 46.7553C24.2231 48.8416 27.2655 50.8775 30.4491 52.7915C30.638 55.5003 30.9157 58.1733 31.286 60.75C28.4783 61.6053 25.786 62.2735 23.2964 62.6988ZM43.9984 81.2403C41.0678 81.2403 37.3461 74.6779 35.2919 63.2296C38.2417 62.2152 41.1466 61.0744 43.9984 59.8104C46.8501 61.0747 49.7549 62.2155 52.7049 63.2296C50.6506 74.6779 46.929 81.2403 43.9984 81.2403ZM70.8824 50.586C76.4154 55.9999 77.5273 59.6179 76.7206 61.1992C75.914 62.7795 72.338 64.0088 64.7004 62.6998C62.2107 62.2744 59.5185 61.6053 56.7107 60.7509C57.081 58.1806 57.3579 55.5131 57.5467 52.8108C60.8018 50.8647 63.8369 48.8343 66.574 46.7754C68.07 47.9763 69.5077 49.248 70.8824 50.586ZM66.575 42.2196C63.8378 40.1608 60.8027 38.1304 57.5476 36.1834C57.3588 33.4792 57.081 30.8108 56.7107 28.2386C62.3244 26.5364 67.0324 25.7673 70.4827 25.7673C73.8744 25.7673 76.0615 26.4997 76.7215 27.7949C77.5282 29.3753 76.4163 32.9934 70.8833 38.4072C69.5078 39.7449 68.0701 41.0171 66.575 42.2196Z" fill="#9EA0A4"/>
</svg>
