<svg width="22" height="16" viewBox="0 0 22 16" fill="none" xmlns="http://www.w3.org/2000/svg">
<path d="M19 15.75H3C2.27147 15.7474 1.57352 15.4568 1.05837 14.9416C0.543212 14.4265 0.252635 13.7285 0.25 13V3C0.252635 2.27147 0.543212 1.57352 1.05837 1.05837C1.57352 0.543212 2.27147 0.252635 3 0.25H19C19.7285 0.252635 20.4265 0.543212 20.9416 1.05837C21.4568 1.57352 21.7474 2.27147 21.75 3V13C21.7474 13.7285 21.4568 14.4265 20.9416 14.9416C20.4265 15.4568 19.7285 15.7474 19 15.75ZM3 1.75C2.66848 1.75 2.35054 1.8817 2.11612 2.11612C1.8817 2.35054 1.75 2.66848 1.75 3V13C1.75 13.3315 1.8817 13.6495 2.11612 13.8839C2.35054 14.1183 2.66848 14.25 3 14.25H19C19.3315 14.25 19.6495 14.1183 19.8839 13.8839C20.1183 13.6495 20.25 13.3315 20.25 13V3C20.25 2.66848 20.1183 2.35054 19.8839 2.11612C19.6495 1.8817 19.3315 1.75 19 1.75H3Z" fill="#056DEA"/>
<path d="M10.9997 9.35076C10.4194 9.35076 9.8497 9.19537 9.34973 8.90075L0.619734 3.71075C0.456627 3.6091 0.338092 3.44942 0.287994 3.26387C0.237896 3.07833 0.259957 2.88069 0.349734 2.71075C0.449579 2.54555 0.610024 2.4259 0.796843 2.37733C0.983663 2.32876 1.18207 2.3551 1.34973 2.45075L10.0897 7.63076C10.3548 7.79242 10.6593 7.87795 10.9697 7.87795C11.2802 7.87795 11.5847 7.79242 11.8497 7.63076L20.5897 2.45075C20.7574 2.3551 20.9558 2.32876 21.1426 2.37733C21.3294 2.4259 21.4899 2.54555 21.5897 2.71075C21.6795 2.88069 21.7016 3.07833 21.6515 3.26387C21.6014 3.44942 21.4828 3.6091 21.3197 3.71075L12.6497 8.90075C12.1498 9.19537 11.58 9.35076 10.9997 9.35076Z" fill="#056DEA"/>
</svg>
