<svg width="43" height="42" viewBox="0 0 43 42" fill="none" xmlns="http://www.w3.org/2000/svg">
<g clip-path="url(#clip0_707_4638)">
<mask id="mask0_707_4638" style="mask-type:luminance" maskUnits="userSpaceOnUse" x="0" y="0" width="43" height="42">
<path d="M0.5 0.00012207H42.4999V42H0.5V0.00012207Z" fill="white"/>
</mask>
<g mask="url(#mask0_707_4638)">
<path d="M37.9882 40.7695H5.01171C3.19948 40.7695 1.73047 39.3005 1.73047 37.4883V4.51183C1.73047 2.6996 3.19948 1.23059 5.01171 1.23059H37.9882C39.8004 1.23059 41.2694 2.6996 41.2694 4.51183V37.4883C41.2694 39.3005 39.8004 40.7695 37.9882 40.7695Z" stroke="#056DEA" stroke-width="2" stroke-miterlimit="10" stroke-linecap="round" stroke-linejoin="round"/>
<path d="M41.2694 11.0742H1.73047V4.51174C1.73047 2.69951 3.19948 1.2305 5.01171 1.2305H37.9882C39.8004 1.2305 41.2694 2.69951 41.2694 4.51174V11.0742Z" stroke="#056DEA" stroke-width="2" stroke-miterlimit="10" stroke-linecap="round" stroke-linejoin="round"/>
<path d="M7.96484 6.15235C7.96484 6.83189 7.41392 7.38281 6.73437 7.38281C6.05483 7.38281 5.50391 6.83189 5.50391 6.15235C5.50391 5.4728 6.05483 4.92188 6.73437 4.92188C7.41392 4.92188 7.96484 5.4728 7.96484 6.15235Z" fill="#056DEA"/>
<path d="M12.8867 6.15235C12.8867 6.83189 12.3358 7.38281 11.6562 7.38281C10.9767 7.38281 10.4258 6.83189 10.4258 6.15235C10.4258 5.4728 10.9767 4.92188 11.6562 4.92188C12.3358 4.92188 12.8867 5.4728 12.8867 6.15235Z" fill="#056DEA"/>
<path d="M17.8086 6.15235C17.8086 6.83189 17.2577 7.38281 16.5781 7.38281C15.8986 7.38281 15.3477 6.83189 15.3477 6.15235C15.3477 5.4728 15.8986 4.92188 16.5781 4.92188C17.2577 4.92188 17.8086 5.4728 17.8086 6.15235Z" fill="#056DEA"/>
<path d="M31.3437 25.9219C31.3437 31.3584 26.9365 35.7656 21.5 35.7656C16.0634 35.7656 11.6562 31.3584 11.6562 25.9219C11.6562 20.4854 16.0634 16.0782 21.5 16.0782C26.9365 16.0782 31.3437 20.4854 31.3437 25.9219Z" stroke="#056DEA" stroke-width="2" stroke-miterlimit="10" stroke-linecap="round" stroke-linejoin="round"/>
<path d="M31.3437 25.9219C31.3437 27.9606 26.9365 29.6133 21.5 29.6133C16.0634 29.6133 11.6562 27.9606 11.6562 25.9219C11.6562 23.8832 16.0634 22.2305 21.5 22.2305C26.9365 22.2305 31.3437 23.8832 31.3437 25.9219Z" stroke="#056DEA" stroke-width="2" stroke-miterlimit="10" stroke-linecap="round" stroke-linejoin="round"/>
<path d="M21.5 16.0782C23.5387 16.0782 25.1914 20.4854 25.1914 25.9219C25.1914 31.3584 23.5387 35.7656 21.5 35.7656C19.4613 35.7656 17.8086 31.3584 17.8086 25.9219C17.8086 20.4854 19.4613 16.0782 21.5 16.0782Z" stroke="#056DEA" stroke-width="2" stroke-miterlimit="10" stroke-linecap="round" stroke-linejoin="round"/>
</g>
</g>
<defs>
<clipPath id="clip0_707_4638">
<rect width="42" height="42" fill="white" transform="translate(0.5)"/>
</clipPath>
</defs>
</svg>
