<svg width="24" height="24" viewBox="0 0 24 24" fill="none" xmlns="http://www.w3.org/2000/svg">
<path d="M5.63967 15.9566C7.83776 18.5842 10.4838 20.653 13.5039 22.1168C14.6537 22.6617 16.1914 23.3082 17.9047 23.4191C18.0109 23.4237 18.1125 23.4283 18.2187 23.4283C19.3685 23.4283 20.2921 23.0312 21.0448 22.2138C21.0494 22.2092 21.0586 22.1999 21.0633 22.1907C21.3311 21.8675 21.6359 21.5765 21.9545 21.2671C22.1716 21.0593 22.3932 20.8423 22.6056 20.6206C23.5892 19.5955 23.5892 18.2932 22.5964 17.3004L19.8211 14.5251C19.35 14.0356 18.7867 13.777 18.1956 13.777C17.6045 13.777 17.0365 14.0356 16.5516 14.5205L14.8984 16.1737C14.7461 16.0859 14.5891 16.0074 14.4413 15.9335C14.2566 15.8412 14.0857 15.7534 13.9333 15.6565C12.4279 14.7006 11.061 13.4537 9.75417 11.8514C9.09382 11.0155 8.6505 10.3136 8.34111 9.59785C8.77519 9.20533 9.18156 8.79435 9.57407 8.39259C9.71261 8.24944 9.85576 8.10629 9.99891 7.96313C10.4976 7.46441 10.7655 6.88718 10.7655 6.30071C10.7655 5.71424 10.5023 5.13701 9.99891 4.63829L8.6228 3.26217C8.46117 3.10054 8.30878 2.94354 8.15178 2.78191C7.847 2.4679 7.52837 2.14465 7.21435 1.85373C6.73872 1.38732 6.17996 1.14258 5.58887 1.14258C5.00241 1.14258 4.43903 1.38732 3.94492 1.85834L2.21785 3.58542C1.58982 4.21344 1.23425 4.97539 1.16036 5.8574C1.07262 6.96106 1.27581 8.13399 1.80224 9.55167C2.61036 11.7451 3.82947 13.7816 5.63967 15.9566ZM2.28712 5.95437C2.34253 5.3402 2.57804 4.82762 3.02135 4.3843L4.73919 2.66647C5.00703 2.40787 5.30257 2.27395 5.58887 2.27395C5.87056 2.27395 6.15687 2.40787 6.42009 2.6757C6.72948 2.96201 7.02041 3.26217 7.33442 3.5808C7.49143 3.74242 7.65305 3.90405 7.81467 4.07029L9.19079 5.44641C9.4771 5.73271 9.62487 6.02364 9.62487 6.30995C9.62487 6.59625 9.4771 6.88718 9.19079 7.17348C9.04764 7.31664 8.90449 7.46441 8.76133 7.60756C8.33187 8.04164 7.93012 8.45262 7.48681 8.84514L7.46372 8.86823C7.08044 9.25151 7.14047 9.61632 7.23283 9.89339C7.23744 9.90725 7.24206 9.91648 7.24668 9.93034C7.60225 10.7846 8.09636 11.5974 8.86754 12.5671C10.2529 14.2757 11.7121 15.601 13.3191 16.6216C13.5177 16.7509 13.7301 16.8525 13.9287 16.9541C14.1134 17.0464 14.2843 17.1342 14.4367 17.2311C14.4551 17.2404 14.469 17.2496 14.4875 17.2589C14.6398 17.3374 14.7876 17.3743 14.9354 17.3743C15.3048 17.3743 15.5449 17.1388 15.6234 17.0603L17.3505 15.3332C17.6184 15.0654 17.9093 14.9222 18.1956 14.9222C18.5465 14.9222 18.8328 15.1393 19.0129 15.3332L21.7975 18.1132C22.3516 18.6673 22.347 19.2676 21.7837 19.8541C21.5897 20.0619 21.3865 20.2605 21.1695 20.4683C20.8462 20.7823 20.5091 21.1055 20.2043 21.4703C19.6733 22.0429 19.0407 22.3108 18.2233 22.3108C18.1448 22.3108 18.0617 22.3062 17.9832 22.3015C16.4685 22.2046 15.0601 21.6135 14.0026 21.1101C11.1303 19.7202 8.60894 17.7483 6.51706 15.2455C4.7946 13.1721 3.63553 11.2418 2.86896 9.17301C2.39333 7.9031 2.21323 6.88256 2.28712 5.95437Z" fill="#056DEA"/>
</svg>
