<svg width="12" height="9" viewBox="0 0 12 9" fill="none" xmlns="http://www.w3.org/2000/svg">
<path d="M3.575 6.60078L9.475 0.700782C9.65833 0.517448 9.89167 0.425781 10.175 0.425781C10.4583 0.425781 10.6917 0.517448 10.875 0.700782C11.0583 0.884115 11.15 1.11745 11.15 1.40078C11.15 1.68411 11.0583 1.91745 10.875 2.10078L4.275 8.70078C4.075 8.90078 3.84167 9.00078 3.575 9.00078C3.30833 9.00078 3.075 8.90078 2.875 8.70078L0.275 6.10078C0.0916663 5.91745 0 5.68411 0 5.40078C0 5.11745 0.0916663 4.88412 0.275 4.70078C0.458333 4.51745 0.691667 4.42578 0.975 4.42578C1.25833 4.42578 1.49167 4.51745 1.675 4.70078L3.575 6.60078Z" fill="white"/>
</svg>
