<svg width="83" height="79" viewBox="0 0 83 79" fill="none" xmlns="http://www.w3.org/2000/svg">
<g clip-path="url(#clip0_707_4853)">
<path fill-rule="evenodd" clip-rule="evenodd" d="M47.9313 1.40234C47.3734 1.40234 46.8553 1.5219 46.3771 1.6813C47.3933 2.35875 47.9512 3.25539 48.2302 4.27158C48.2502 4.41105 48.29 4.51068 48.3099 4.65015C48.3299 4.76971 48.3497 4.88926 48.3497 5.00881C48.4295 6.76223 47.8914 6.9814 47.5129 8.01752C46.935 9.35251 47.0944 10.7871 47.7918 11.9428C47.8516 12.0823 47.9313 12.2417 48.0309 12.3811C47.2738 7.34006 51.478 6.5829 52.2551 5.00881C52.3148 3.63397 51.1791 2.71741 50.2825 2.0798C49.4257 1.56175 48.6486 1.40234 47.9313 1.40234ZM54.2675 2.53808C54.1878 2.99636 54.2476 2.87681 54.2277 3.11591C54.2078 3.27531 54.2078 3.47457 54.1879 3.63397C54.1481 3.79337 54.1081 3.95277 54.0484 4.11218C54.0086 4.27158 53.9488 4.43098 53.889 4.59038C53.8093 4.74979 53.7495 4.88926 53.6698 5.04866C53.6101 5.12839 53.5702 5.20806 53.5104 5.28776C53.4706 5.34754 53.4307 5.40731 53.3909 5.46709C53.2913 5.60657 53.1916 5.74604 53.092 5.86559C52.9724 5.98515 52.8728 6.12462 52.7333 6.22425V6.2442C52.6138 6.34383 52.4942 6.46338 52.3548 6.563C51.9363 6.8818 51.4581 7.12091 51.0198 7.41979C50.8803 7.51941 50.7408 7.59912 50.6213 7.71867C50.4818 7.81829 50.3622 7.91791 50.2427 8.03747C50.1032 8.15702 50.0036 8.27657 49.884 8.41605C49.7844 8.53561 49.6649 8.67508 49.5852 8.81456C49.4855 8.95403 49.3859 9.09351 49.3062 9.23298C49.2265 9.39238 49.1667 9.53186 49.087 9.69126C49.0272 9.85066 48.9675 9.99014 48.9276 10.1495C48.8678 10.3289 48.828 10.4883 48.7881 10.6477C48.7682 10.7274 48.7682 10.827 48.7483 10.9067C48.7283 10.9864 48.7283 11.0661 48.7085 11.1458C48.7085 11.3052 48.6886 11.4845 48.6886 11.6439C48.6886 11.7635 48.6886 11.883 48.7085 12.0026C48.7085 12.162 48.7285 12.3214 48.7683 12.5007C48.7882 12.6601 48.828 12.8195 48.8679 12.9789C48.9277 13.1383 48.9675 13.2977 49.0273 13.4571C49.0671 13.5568 49.1269 13.6564 49.1668 13.7361L44.584 11.9627C43.8069 11.7436 43.0497 11.5443 42.2727 11.365C41.8542 11.2654 41.4358 11.1657 41.0174 11.0661C39.8219 10.827 38.6064 10.6477 37.391 10.5281C37.3512 10.5281 37.3312 10.5082 37.2914 10.5082C36.0958 10.3886 34.9203 10.3288 33.7248 10.3288C32.848 10.3288 31.9713 10.3687 31.1145 10.4285C29.8991 10.5082 28.6837 10.6676 27.4682 10.8668C27.1693 10.9066 26.8705 10.9665 26.5716 11.0262C25.9539 11.1458 25.3562 11.2853 24.7783 11.4247C24.4794 11.5045 24.1806 11.5841 23.8817 11.6638C23.5828 11.7834 23.3039 11.9229 23.0249 12.0424C22.8057 12.142 22.5865 12.2417 22.3674 12.3413C22.3275 12.3612 22.2876 12.3612 22.2677 12.3811C22.0685 12.4807 21.8892 12.5604 21.7098 12.6601C21.6501 12.68 21.6102 12.6999 21.5704 12.7198C21.3512 12.8195 21.132 12.939 20.9527 13.0386C20.8132 13.0984 20.6737 13.1781 20.5542 13.2379C20.4944 13.2777 20.4147 13.3176 20.3748 13.3375C20.1955 13.4372 20.0162 13.5368 19.8568 13.6364C19.6775 13.736 19.5181 13.8357 19.3786 13.9353C19.2391 14.0349 19.0996 14.1146 18.9801 14.2142C18.9601 14.2342 18.9403 14.2342 18.9203 14.2541C18.8007 14.3338 18.6613 14.4334 18.5417 14.533C18.5417 14.533 18.5218 14.553 18.5019 14.5728C18.4023 14.6526 18.3026 14.7322 18.203 14.8119C18.1632 14.8319 18.1233 14.8717 18.0835 14.8917C17.9838 14.9714 17.8842 15.071 17.7846 15.1507C17.7646 15.1905 17.7248 15.2105 17.7049 15.2304C17.5853 15.35 17.4658 15.4496 17.3462 15.5691C17.3263 15.5691 17.3263 15.5891 17.3064 15.609C17.1868 15.7086 17.0673 15.8281 16.9477 15.9477C16.9278 15.9677 16.9278 15.9875 16.9079 15.9875C16.8083 16.0871 16.7087 16.1868 16.609 16.3063C16.5692 16.3461 16.5094 16.386 16.4696 16.4259C16.3699 16.5454 16.2504 16.665 16.1308 16.7845C16.1109 16.8243 16.0711 16.8443 16.0511 16.8841C15.8917 17.0436 15.7522 17.203 15.5928 17.3624C15.5729 17.3823 15.553 17.4022 15.533 17.4221C15.2142 17.7609 14.8755 18.0996 14.5169 18.3985C14.1582 18.7173 13.7796 19.0161 13.401 19.2752C13.0025 19.5541 12.624 19.7932 12.2055 20.0323C11.807 20.2515 11.3886 20.4508 10.9502 20.6301C10.5318 20.8094 10.0935 20.9688 9.65511 21.1083C8.81824 21.2876 7.96146 21.6264 7.22423 21.6861C7.06483 21.6861 6.8855 21.7259 6.7261 21.7459C6.54677 21.7857 6.38737 21.8256 6.22797 21.8655C6.06857 21.9252 5.90916 21.985 5.74976 22.0448C5.59036 22.1046 5.43096 22.1843 5.27156 22.264C5.13208 22.3636 4.97268 22.4433 4.8332 22.5429C4.69373 22.6425 4.55425 22.7621 4.4347 22.8816C4.29523 22.9813 4.15575 23.1207 4.03619 23.2403C3.91664 23.3798 3.79709 23.4993 3.69746 23.6388C3.59784 23.7982 3.47829 23.9377 3.39858 24.0971C3.29896 24.2366 3.19934 24.396 3.11963 24.5554C3.0399 24.7347 2.96023 24.8941 2.90046 25.0734C2.84068 25.2328 2.7809 25.4121 2.72113 25.5915C2.68131 25.7509 2.6414 25.9103 2.6215 26.0697C2.6215 26.0896 2.60155 26.1095 2.60155 26.1294C2.56173 26.3088 2.56173 26.5479 2.54177 26.6674C2.52182 26.8069 2.50195 26.9265 2.50195 27.0659C2.50195 27.1457 2.50195 27.2453 2.52191 27.325C2.54186 27.4644 2.56173 27.584 2.60164 27.7036C2.64146 27.8231 2.68137 27.9426 2.74111 28.0622V28.0822C2.80089 28.2017 2.88059 28.3213 2.96029 28.4408C3.04002 28.5604 3.1197 28.6799 3.21932 28.7995C3.31895 28.8991 3.4385 29.0186 3.55805 29.1183C3.6776 29.2378 3.79715 29.3374 3.93663 29.4371C4.41483 29.8555 4.53439 29.995 5.15207 30.3138C5.25169 30.3736 5.35132 30.4134 5.47088 30.4732C5.49084 30.4732 5.5107 30.4931 5.53065 30.4931C5.53065 30.533 5.53065 30.5529 5.55061 30.5928C5.57057 30.7522 5.61039 30.9116 5.65023 31.071C5.69005 31.2503 5.74987 31.4097 5.80964 31.5492C5.86942 31.6687 5.90927 31.7883 5.96904 31.9078C5.989 31.9477 6.00886 31.9876 6.02882 32.0075C6.10855 32.1669 6.18822 32.3064 6.26791 32.4458C6.36755 32.5853 6.46717 32.7248 6.56679 32.8642C6.66642 32.9838 6.78597 33.1233 6.90552 33.2428C7.02508 33.3624 7.14463 33.462 7.28411 33.5815C7.28411 33.5815 7.30407 33.6015 7.32393 33.6015C7.44348 33.7012 7.56303 33.8008 7.68258 33.8805C7.82206 33.9801 7.96154 34.0598 8.12094 34.1395C8.26042 34.2192 8.41982 34.2989 8.57922 34.3587C8.69877 34.4185 8.83824 34.4583 8.97772 34.4982C8.99768 34.5181 9.01754 34.5181 9.05745 34.538C9.13719 34.558 9.23677 34.5778 9.31648 34.5978C9.2567 35.6737 9.23674 36.6899 9.39621 37.0486C9.57553 37.4471 10.4522 36.2316 11.329 34.8369C11.2094 36.2117 11.1297 37.8256 11.329 38.3039C11.5481 38.802 12.7436 37.2478 13.7798 35.5342C27.9067 32.2665 40.7984 42.0299 42.1533 55.8181C41.8942 53.6662 39.2442 52.4707 38.0288 52.7696C37.431 54.244 36.4148 56.1369 34.7809 57.3125C34.9204 55.9974 34.8607 54.6425 34.5817 53.3275C34.1433 55.1606 33.2865 56.8742 32.111 58.3486C30.2181 58.4881 28.3252 57.5715 27.3289 56.1967C27.2492 56.1369 27.2293 56.0174 27.1695 55.9377C27.1097 55.7982 27.0499 55.6587 27.0101 55.5192C26.9503 55.3798 26.9105 55.2403 26.8905 55.1008C26.8706 54.9613 26.8706 54.8219 26.8706 54.6625C26.8706 54.5628 26.8706 54.4632 26.8706 54.3636C26.8905 54.2241 26.9304 54.0846 26.9702 53.9451C27.01 53.8057 27.0499 53.6662 27.1097 53.5267C27.1894 53.3872 27.2492 53.2478 27.3488 53.1083C27.6875 52.1519 27.6875 51.3748 27.0698 50.9165C26.9503 50.8368 26.8307 50.777 26.6913 50.7173C26.6115 50.6973 26.5119 50.6575 26.4322 50.6375C26.3725 50.6176 26.3326 50.5977 26.2728 50.5777C26.1334 50.5379 25.9939 50.498 25.8544 50.4781C25.7149 50.4383 25.5754 50.4184 25.436 50.4184C25.2965 50.3984 25.1371 50.3785 24.9976 50.3785C24.898 50.3785 24.7984 50.3985 24.6987 50.3985C24.5393 50.3985 24.3999 50.4185 24.2604 50.4583C24.1209 50.4782 23.9814 50.4981 23.842 50.538C23.7025 50.5778 23.563 50.6177 23.4235 50.6775C23.284 50.7372 23.1645 50.797 23.025 50.8568C22.9055 50.9166 22.7859 50.9963 22.6464 51.056C18.0039 54.0847 20.7735 61.178 23.9416 63.2303C22.7461 63.4495 21.5306 63.7086 21.1919 63.9676C21.1719 63.9875 21.1521 64.0074 21.1521 64.0074C22.0089 64.5255 22.9055 64.9638 23.842 65.3424C25.1172 65.7608 26.4721 66.1394 27.0699 66.2988V66.3187C28.7237 66.6575 30.3974 66.777 32.091 66.6774C40.9179 66.0597 48.1508 59.3449 49.4658 50.4981C49.5056 50.6775 49.5456 50.8369 49.5854 51.0162C49.6452 51.3748 49.7248 51.7534 49.7647 52.132V52.152C49.8045 52.3313 49.8245 52.5106 49.8444 52.67V52.7498C49.8644 52.9291 49.8842 53.1084 49.8842 53.2678C49.9042 53.487 49.9241 53.7062 49.9241 53.9254V54.2442C49.9241 54.3438 49.944 54.4633 49.944 54.563C49.944 54.6825 49.9241 54.8021 49.9241 54.9216V55.2006C49.9241 55.34 49.9041 55.4596 49.9041 55.5991C49.9041 55.6788 49.9041 55.7585 49.8841 55.8581C49.8841 55.9976 49.8642 56.1371 49.8642 56.2965C49.8442 56.3562 49.8442 56.416 49.8442 56.4758C49.8243 56.6352 49.8044 56.7747 49.7844 56.9341C49.7844 56.9938 49.7844 57.0536 49.7645 57.1134C49.7445 57.3126 49.7047 57.492 49.6848 57.6912V57.7112V57.7312C49.6449 57.9105 49.605 58.1097 49.5652 58.2891V58.3488C49.5254 58.5282 49.4855 58.7075 49.4456 58.8868C49.4456 58.9068 49.4257 58.9466 49.4257 58.9665C49.3859 59.1459 49.346 59.3252 49.2862 59.5045V59.5643C49.2265 59.7635 49.1667 59.9429 49.1268 60.1222C49.1069 60.1422 49.1069 60.162 49.1069 60.162C49.0471 60.3613 48.9873 60.5605 48.9275 60.7598C48.8478 60.959 48.7881 61.1384 48.7084 61.3376C48.6286 61.5369 48.5689 61.7361 48.4892 61.9154C48.4095 62.1147 48.3298 62.294 48.2501 62.4933H48.2301C48.1504 62.6726 48.0707 62.8719 47.9711 63.0512C47.9511 63.111 47.9313 63.1508 47.9113 63.1907C47.8913 63.2106 47.8913 63.2305 47.8715 63.2504C46.5763 65.8606 44.6635 68.152 42.2725 69.9453C42.1131 70.0449 41.9537 70.1645 41.7943 70.284C41.7545 70.3239 41.6947 70.3438 41.6548 70.3837C41.5153 70.4833 41.3759 70.5829 41.2165 70.6825L41.2762 70.8021H41.2962C41.5751 70.7623 41.8541 70.7224 42.133 70.6825H42.153C42.6711 70.6028 43.1891 70.5032 43.7072 70.4036C43.8466 70.3836 44.0061 70.3438 44.1455 70.3039C44.2451 70.284 44.3248 70.2641 44.4245 70.2442C44.5639 70.2242 44.7034 70.1844 44.8429 70.1644C44.9625 70.1246 45.082 70.1047 45.2016 70.0648C47.1941 69.5866 49.1268 68.9291 50.9799 68.152C47.8118 72.4758 43.5677 75.9627 38.6063 78.2541C40.8977 78.0947 43.1891 77.7161 45.4008 77.0785C53.4307 74.7074 60.1853 69.3077 64.2301 62.035C63.4132 66.6377 61.5801 71.0212 58.8703 74.8469C60.803 73.5716 62.5763 72.0972 64.1903 70.4235C68.6535 65.761 71.5826 59.8432 72.5788 53.487C73.2563 56.6352 73.4555 59.883 73.1566 63.091C87.5426 43.0263 74.3521 22.2244 68.8329 16.7449C68.8129 16.7051 68.793 16.6852 68.793 16.6453C68.7731 16.6653 68.7731 16.6653 68.7731 16.6851C68.7731 16.6652 68.7731 16.6652 68.7531 16.6453C68.7531 16.8844 68.7332 17.1235 68.7133 17.3626C68.6535 17.8209 68.5938 18.2592 68.514 18.6976C68.4144 19.136 68.2949 19.5743 68.1753 20.0127C68.0358 20.4311 67.8764 20.8694 67.6971 21.2879C67.5178 21.6864 67.3185 22.1048 67.0993 22.5033C66.8802 22.8819 66.6411 23.2804 66.382 23.6391C66.123 24.0176 65.8441 24.3763 65.5651 24.715C65.2662 25.0737 64.9474 25.3925 64.6286 25.7113C64.4294 25.8906 64.25 26.05 64.0508 26.2094C63.8914 26.3489 63.7519 26.4684 63.5925 26.6079C63.2339 26.8869 62.8752 27.1459 62.4767 27.385C62.0981 27.6241 61.6996 27.8632 61.3011 28.0625C60.8827 28.2617 60.4643 28.441 60.0458 28.6204C59.6274 28.7798 59.189 28.9192 58.7507 29.0388C58.3123 29.1583 57.8541 29.258 57.4157 29.3377C56.9574 29.4174 56.4991 29.4572 56.0608 29.4971C55.742 29.517 55.4232 29.5369 55.1044 29.5369C54.6461 29.5369 54.1878 29.4971 53.7495 29.4572C53.2912 29.4173 52.8329 29.3575 52.3945 29.2579C51.9363 29.1782 51.4979 29.0586 51.0596 28.9192H51.0396C51.478 28.8794 51.9163 28.8394 52.3547 28.7598C52.8129 28.68 53.2513 28.5805 53.6897 28.4609C54.128 28.3413 54.5664 28.2019 54.9848 28.0425C55.4231 27.8831 55.8416 27.6838 56.2401 27.4846C56.6585 27.2853 57.0371 27.0661 57.4356 26.827C57.8142 26.568 58.1928 26.309 58.5514 26.03C58.9101 25.7511 59.2488 25.4522 59.5676 25.1334C59.9063 24.8345 60.2052 24.4958 60.5041 24.157C60.803 23.7984 61.0819 23.4397 61.3409 23.0811C61.3808 23.0213 61.4207 22.9416 61.4605 22.8818C61.6597 22.563 61.859 22.2442 62.0383 21.9254C62.2575 21.5269 62.4568 21.1284 62.6361 20.71C62.8154 20.2916 62.9748 19.8731 63.1143 19.4348C63.2538 19.0163 63.3534 18.578 63.453 18.1396C63.5328 17.6814 63.6124 17.243 63.6523 16.8046C63.6921 16.3464 63.732 15.8881 63.732 15.4497C63.732 15.1309 63.712 14.8121 63.6922 14.4933C63.6524 14.035 63.5925 13.5967 63.5328 13.1583C63.453 12.7001 63.3535 12.2617 63.2339 11.8233C63.0944 11.4049 62.9549 10.9666 62.7955 10.5481C62.6361 10.1297 62.4369 9.71127 62.2376 9.31276C62.0185 8.91426 61.7993 8.51576 61.5602 8.13718C61.3012 7.7586 61.0421 7.39995 60.7632 7.04129C60.4643 6.70256 60.1654 6.36383 59.8466 6.02511C59.6872 5.86571 59.5079 5.68638 59.3285 5.52698C58.4319 4.82959 57.4954 4.17206 56.5589 3.5743C56.4195 3.49457 56.2999 3.43483 56.1604 3.37505C55.5029 2.95662 54.8852 2.73733 54.2675 2.53808Z" fill="#9EA0A4"/>
</g>
<defs>
<clipPath id="clip0_707_4853">
<rect width="81.5833" height="78.8095" fill="white" transform="translate(0.650391 0.0957031)"/>
</clipPath>
</defs>
</svg>
