<svg width="290" height="183" viewBox="0 0 290 183" fill="none" xmlns="http://www.w3.org/2000/svg">
<path d="M242.161 145.305H66.2138C60.8768 145.305 56.5498 140.979 56.5498 135.641V9.66401C56.5498 4.32703 60.8762 0 66.2138 0H242.161C247.498 0 251.825 4.32639 251.825 9.66401V135.641C251.825 140.978 247.498 145.305 242.161 145.305Z" fill="#32528E"/>
<path opacity="0.5" d="M225.361 73.1225H83.0163C82.5038 73.1225 82.0123 72.9189 81.6499 72.5566C81.2876 72.1942 81.084 71.7027 81.084 71.1902V24.626H227.294V71.1909C227.294 71.7033 227.09 72.1946 226.728 72.5568C226.365 72.919 225.874 73.1225 225.361 73.1225Z" fill="#1C60BC"/>
<path d="M167.879 88.1919H99.2703C98.4162 88.1919 97.597 87.8526 96.9931 87.2487C96.3891 86.6447 96.0498 85.8256 96.0498 84.9715C96.0498 84.1173 96.3891 83.2982 96.9931 82.6942C97.597 82.0903 98.4162 81.751 99.2703 81.751H167.879C168.733 81.751 169.553 82.0903 170.157 82.6942C170.761 83.2982 171.1 84.1173 171.1 84.9715C171.1 85.8256 170.761 86.6447 170.157 87.2487C169.553 87.8526 168.733 88.1919 167.879 88.1919ZM167.879 101.074H99.2703C98.4162 101.074 97.597 100.735 96.9931 100.131C96.3891 99.5266 96.0498 98.7075 96.0498 97.8534C96.0498 96.9992 96.3891 96.1801 96.9931 95.5761C97.597 94.9722 98.4162 94.6329 99.2703 94.6329H167.879C168.733 94.6329 169.553 94.9722 170.157 95.5761C170.761 96.1801 171.1 96.9992 171.1 97.8534C171.1 98.7075 170.761 99.5266 170.157 100.131C169.553 100.735 168.733 101.074 167.879 101.074Z" fill="#B7C5FF"/>
<path d="M202.016 101.074H191.376C190.522 101.074 189.702 100.734 189.099 100.131C188.495 99.5265 188.155 98.7074 188.155 97.8533C188.155 96.9992 188.495 96.18 189.099 95.5761C189.702 94.9721 190.522 94.6328 191.376 94.6328H202.016C202.87 94.6328 203.689 94.9721 204.293 95.5761C204.897 96.18 205.237 96.9992 205.237 97.8533C205.237 98.7074 204.897 99.5265 204.293 100.131C203.689 100.734 202.87 101.074 202.016 101.074Z" fill="#B7C5FF"/>
<path d="M251.825 24.6251V9.66401C251.825 4.32703 247.498 0 242.161 0H66.2138C60.8768 0 56.5498 4.32639 56.5498 9.66401V24.6251H251.825Z" fill="#6583FE"/>
<path d="M56.5498 119.548V135.642C56.5498 140.979 60.8768 145.307 66.2138 145.307H242.161C247.498 145.307 251.825 140.98 251.825 135.642V119.548H56.5498Z" fill="#6583FE"/>
<path d="M214.049 57.0929C215.004 57.0929 215.919 57.4722 216.595 58.1475C217.27 58.8227 217.649 59.7385 217.649 60.6934C217.649 61.6483 217.27 62.5641 216.595 63.2393C215.919 63.9145 215.004 64.2939 214.049 64.2939C213.094 64.2939 212.178 63.9145 211.503 63.2393C210.828 62.5641 210.448 61.6483 210.448 60.6934C210.448 59.7385 210.828 58.8227 211.503 58.1475C212.178 57.4722 213.094 57.0929 214.049 57.0929ZM214.049 46.2012C215.004 46.2012 215.919 46.5806 216.595 47.2558C217.27 47.931 217.649 48.8468 217.649 49.8017C217.649 50.7566 217.27 51.6724 216.595 52.3477C215.919 53.0229 215.004 53.4022 214.049 53.4022C213.094 53.4022 212.178 53.0229 211.503 52.3477C210.828 51.6724 210.448 50.7566 210.448 49.8017C210.448 48.8468 210.828 47.931 211.503 47.2558C212.178 46.5806 213.094 46.2012 214.049 46.2012ZM214.049 35.3096C215.004 35.3096 215.919 35.6889 216.595 36.3641C217.27 37.0394 217.649 37.9552 217.649 38.9101C217.649 39.865 217.27 40.7808 216.595 41.456C215.919 42.1312 215.004 42.5106 214.049 42.5106C213.094 42.5106 212.178 42.1312 211.503 41.456C210.828 40.7808 210.448 39.865 210.448 38.9101C210.448 37.9552 210.828 37.0394 211.503 36.3641C212.178 35.6889 213.094 35.3096 214.049 35.3096Z" fill="#B7C5FF"/>
<path d="M76.0203 9.05566C75.1662 9.05566 74.347 9.39497 73.7431 9.99893C73.1391 10.6029 72.7998 11.422 72.7998 12.2761V12.3502C72.7998 13.2043 73.1391 14.0235 73.7431 14.6274C74.347 15.2314 75.1662 15.5707 76.0203 15.5707C76.8744 15.5707 77.6936 15.2314 78.2975 14.6274C78.9015 14.0235 79.2408 13.2043 79.2408 12.3502V12.2761C79.2408 11.422 78.9015 10.6029 78.2975 9.99893C77.6936 9.39497 76.8744 9.05566 76.0203 9.05566ZM85.8994 9.05566C85.0453 9.05566 84.2262 9.39497 83.6222 9.99893C83.0182 10.6029 82.6789 11.422 82.6789 12.2761V12.3502C82.6789 13.2043 83.0182 14.0235 83.6222 14.6274C84.2262 15.2314 85.0453 15.5707 85.8994 15.5707C86.7535 15.5707 87.5727 15.2314 88.1766 14.6274C88.7806 14.0235 89.1199 13.2043 89.1199 12.3502V12.2761C89.1199 11.422 88.7806 10.6029 88.1766 9.99893C87.5727 9.39497 86.7535 9.05566 85.8994 9.05566ZM95.7779 9.05566C94.9238 9.05566 94.1047 9.39497 93.5007 9.99893C92.8967 10.6029 92.5574 11.422 92.5574 12.2761V12.3502C92.5574 13.2043 92.8967 14.0235 93.5007 14.6274C94.1047 15.2314 94.9238 15.5707 95.7779 15.5707C96.632 15.5707 97.4512 15.2314 98.0551 14.6274C98.6591 14.0235 98.9984 13.2043 98.9984 12.3502V12.2761C98.9984 11.422 98.6591 10.6029 98.0551 9.99893C97.4512 9.39497 96.632 9.05566 95.7779 9.05566Z" fill="#2D58E0"/>
<path d="M283.4 182.471H235.725C232.167 182.471 229.282 179.586 229.282 176.028V86.4751C229.282 82.9171 232.166 80.0322 235.725 80.0322H283.4C286.958 80.0322 289.843 82.9165 289.843 86.4751V176.028C289.843 179.586 286.959 182.471 283.4 182.471Z" fill="#1C60BC"/>
<path d="M271.821 89.1906L274.804 80.0322H244.309L247.291 89.1906C247.502 89.8371 247.912 90.4003 248.462 90.7998C249.012 91.1993 249.674 91.4145 250.354 91.4147H268.758C269.438 91.4147 270.1 91.1995 270.651 90.8C271.201 90.4005 271.611 89.8372 271.821 89.1906Z" fill="#6483FC"/>
<path d="M253.123 167.455H244.106C243.594 167.455 243.102 167.251 242.74 166.889C242.377 166.527 242.174 166.035 242.174 165.523V110.238C242.174 109.725 242.377 109.234 242.74 108.872C243.102 108.509 243.594 108.306 244.106 108.306H253.123C253.636 108.306 254.127 108.509 254.49 108.872C254.852 109.234 255.056 109.725 255.056 110.238V165.523C255.056 166.035 254.852 166.527 254.49 166.889C254.127 167.251 253.636 167.455 253.123 167.455Z" fill="#B7C5FF"/>
<path d="M92.7743 182.471H6.44289C2.8849 182.471 0 179.587 0 176.029V67.148C0 63.59 2.88426 60.7051 6.44289 60.7051H92.7743C96.3322 60.7051 99.2172 63.5893 99.2172 67.148V176.029C99.2165 179.586 96.3322 182.471 92.7743 182.471Z" fill="#32528E"/>
<path d="M99.2165 81.7516V67.148C99.2165 63.59 96.3322 60.7051 92.7736 60.7051H6.44289C2.8849 60.7051 0 63.5893 0 67.148V81.7516H99.2165Z" fill="#6483FC"/>
<path opacity="0.5" d="M37.0438 169.495H17.0768C16.5643 169.495 16.0729 169.291 15.7105 168.929C15.3481 168.566 15.1445 168.075 15.1445 167.562V98.3219C15.1445 97.8095 15.3481 97.318 15.7105 96.9556C16.0729 96.5932 16.5643 96.3896 17.0768 96.3896H37.0438C37.5563 96.3896 38.0477 96.5932 38.4101 96.9556C38.7725 97.318 38.9761 97.8095 38.9761 98.3219V167.562C38.9761 168.075 38.7725 168.566 38.4101 168.929C38.0477 169.291 37.5563 169.495 37.0438 169.495ZM82.1305 120.221H49.9257C49.4132 120.221 48.9217 120.018 48.5594 119.655C48.197 119.293 47.9934 118.801 47.9934 118.289V98.3219C47.9934 97.8095 48.197 97.318 48.5594 96.9556C48.9217 96.5932 49.4132 96.3896 49.9257 96.3896H82.1305C82.643 96.3896 83.1345 96.5932 83.4968 96.9556C83.8592 97.318 84.0628 97.8095 84.0628 98.3219V118.289C84.0628 118.801 83.8592 119.293 83.4968 119.655C83.1345 120.018 82.643 120.221 82.1305 120.221ZM82.1305 169.495H49.9257C49.4132 169.495 48.9217 169.291 48.5594 168.929C48.197 168.566 47.9934 168.075 47.9934 167.562V131.137C47.9934 130.625 48.197 130.133 48.5594 129.771C48.9217 129.409 49.4132 129.205 49.9257 129.205H82.1305C82.643 129.205 83.1345 129.409 83.4968 129.771C83.8592 130.133 84.0628 130.625 84.0628 131.137V167.562C84.0628 168.075 83.8592 168.566 83.4968 168.929C83.1345 169.291 82.643 169.495 82.1305 169.495Z" fill="#056DEA"/>
<path d="M16.8592 74.4857C17.7133 74.4857 18.5324 74.1464 19.1364 73.5425C19.7403 72.9385 20.0796 72.1194 20.0796 71.2652V71.1912C20.0796 70.3371 19.7403 69.5179 19.1364 68.914C18.5324 68.31 17.7133 67.9707 16.8592 67.9707C16.005 67.9707 15.1859 68.31 14.5819 68.914C13.978 69.5179 13.6387 70.3371 13.6387 71.1912V71.2652C13.6387 72.1194 13.978 72.9385 14.5819 73.5425C15.1859 74.1464 16.005 74.4857 16.8592 74.4857ZM26.7376 74.4857C27.5918 74.4857 28.4109 74.1464 29.0149 73.5425C29.6188 72.9385 29.9581 72.1194 29.9581 71.2652V71.1912C29.9581 70.3371 29.6188 69.5179 29.0149 68.914C28.4109 68.31 27.5918 67.9707 26.7376 67.9707C25.8835 67.9707 25.0644 68.31 24.4604 68.914C23.8565 69.5179 23.5172 70.3371 23.5172 71.1912V71.2652C23.5172 72.1194 23.8565 72.9385 24.4604 73.5425C25.0644 74.1464 25.8835 74.4857 26.7376 74.4857ZM36.6161 74.4857C37.4703 74.4857 38.2894 74.1464 38.8934 73.5425C39.4973 72.9385 39.8366 72.1194 39.8366 71.2652V71.1912C39.8366 70.3371 39.4973 69.5179 38.8934 68.914C38.2894 68.31 37.4703 67.9707 36.6161 67.9707C35.762 67.9707 34.9429 68.31 34.3389 68.914C33.735 69.5179 33.3957 70.3371 33.3957 71.1912V71.2652C33.3957 72.1194 33.735 72.9385 34.3389 73.5425C34.9429 74.1464 35.762 74.4857 36.6161 74.4857Z" fill="#056DEA"/>
</svg>
