<svg width="246" height="175" viewBox="0 0 246 175" fill="none" xmlns="http://www.w3.org/2000/svg">
<path d="M245.196 9.19485V165.048C245.196 170.123 241.077 174.242 236.001 174.242H9.19485C4.11929 174.242 0 170.123 0 165.048V9.19485C0 4.11929 4.11929 0 9.19485 0H236.001C241.077 0 245.196 4.11929 245.196 9.19485Z" fill="#4766AC"/>
<path d="M80 29H166V174H80V29Z" fill="#BDC5FE"/>
<path d="M245.196 29.5293V9.19583C245.196 4.11782 241.079 0.000976562 236.001 0.000976562H9.19485C4.11684 0.000976562 0 4.11782 0 9.19583V29.5293H245.196Z" fill="#6583FE"/>
<path d="M245.196 9.19485V165.048C245.196 170.123 241.077 174.242 236.001 174.242H9.19485C4.11929 174.242 0 170.123 0 165.048V9.19485C0 4.11929 4.11929 0 9.19485 0H236.001C241.077 0 245.196 4.11929 245.196 9.19485Z" fill="url(#paint0_linear_800_2486)"/>
<path d="M23.3394 17.875C24.1522 17.875 24.9318 17.5521 25.5066 16.9773C26.0814 16.4025 26.4043 15.623 26.4043 14.8101V14.7212C26.4043 13.9083 26.0814 13.1287 25.5066 12.554C24.9318 11.9792 24.1522 11.6562 23.3394 11.6562C22.5265 11.6562 21.7469 11.9792 21.1721 12.554C20.5973 13.1287 20.2744 13.9083 20.2744 14.7212V14.8101C20.2744 15.623 20.5973 16.4025 21.1721 16.9773C21.7469 17.5521 22.5265 17.875 23.3394 17.875ZM35.1854 17.875C35.9983 17.875 36.7779 17.5521 37.3526 16.9773C37.9274 16.4025 38.2503 15.623 38.2503 14.8101V14.7212C38.2503 13.9083 37.9274 13.1287 37.3526 12.554C36.7779 11.9792 35.9983 11.6562 35.1854 11.6562C34.3725 11.6562 33.5929 11.9792 33.0182 12.554C32.4434 13.1287 32.1204 13.9083 32.1204 14.7212V14.8101C32.1204 15.623 32.4434 16.4025 33.0182 16.9773C33.5929 17.5521 34.3725 17.875 35.1854 17.875ZM47.0308 17.875C47.8437 17.875 48.6233 17.5521 49.1981 16.9773C49.7729 16.4025 50.0958 15.623 50.0958 14.8101V14.7212C50.0958 13.9083 49.7729 13.1287 49.1981 12.554C48.6233 11.9792 47.8437 11.6562 47.0308 11.6562C46.2179 11.6562 45.4384 11.9792 44.8636 12.554C44.2888 13.1287 43.9659 13.9083 43.9659 14.7212V14.8101C43.9659 15.623 44.2888 16.4025 44.8636 16.9773C45.4384 17.5521 46.2179 17.875 47.0308 17.875Z" fill="#2D58E0"/>
<path d="M58.7097 96.0459C59.1787 96.0459 59.6285 96.2322 59.9602 96.5638C60.2918 96.8955 60.4781 97.3453 60.4781 97.8143C60.4781 98.2834 60.2918 98.7332 59.9602 99.0649L55.9043 103.121L59.9602 107.177C60.2824 107.51 60.4607 107.957 60.4567 108.421C60.4527 108.885 60.2666 109.328 59.9387 109.656C59.6107 109.984 59.1671 110.17 58.7033 110.174C58.2395 110.178 57.7927 110 57.4591 109.678L52.1527 104.371C51.821 104.04 51.6348 103.59 51.6348 103.121C51.6348 102.652 51.821 102.202 52.1527 101.87L57.4591 96.5638C57.7908 96.2322 58.2406 96.0459 58.7097 96.0459Z" fill="#AAB8FF"/>
<path d="M186.982 96.0459C186.513 96.0459 186.063 96.2322 185.731 96.5638C185.4 96.8955 185.213 97.3453 185.213 97.8143C185.213 98.2834 185.4 98.7332 185.731 99.0649L189.787 103.121L185.731 107.177C185.409 107.51 185.231 107.957 185.235 108.421C185.239 108.885 185.425 109.328 185.753 109.656C186.081 109.984 186.524 110.17 186.988 110.174C187.452 110.178 187.899 110 188.232 109.678L193.539 104.371C193.87 104.04 194.057 103.59 194.057 103.121C194.057 102.652 193.87 102.202 193.539 101.87L188.232 96.5638C187.901 96.2322 187.451 96.0459 186.982 96.0459Z" fill="#AAB8FF"/>
<path d="M150.078 88.3386C149.79 87.9947 149.43 87.7181 149.023 87.5283C148.616 87.3386 148.173 87.2403 147.724 87.2403H111.76L109.782 81.1242C109.583 80.507 109.192 79.9689 108.668 79.5873C108.143 79.2056 107.511 79 106.862 79H98.0693C96.3738 79 95 80.3732 95 82.0679C95 83.7626 96.3738 85.1357 98.0693 85.1357H104.628L112.581 108.178C112.454 107.787 114.697 114.314 114.697 114.314H143.985C144.706 114.314 145.403 114.06 145.955 113.598C146.508 113.136 146.88 112.494 147.007 111.785L150.746 90.8475C150.825 90.4059 150.806 89.9524 150.69 89.5189C150.575 89.0855 150.366 88.6826 150.078 88.3386ZM141.415 108.178H118.532L113.745 93.376H144.059L141.415 108.178ZM118.125 133.155C113.721 133.155 110.138 129.573 110.138 125.171C110.138 120.768 113.721 117.187 118.125 117.187C122.53 117.187 126.113 120.768 126.113 125.171C126.113 129.573 122.529 133.155 118.125 133.155ZM118.125 123.323C117.106 123.323 116.276 124.152 116.276 125.171C116.276 126.191 117.106 127.02 118.125 127.02C119.145 127.02 119.975 126.191 119.975 125.171C119.975 124.152 119.145 123.323 118.125 123.323ZM141.044 133.155C136.64 133.155 133.057 129.573 133.057 125.171C133.057 120.768 136.64 117.187 141.044 117.187C145.449 117.187 149.032 120.768 149.032 125.171C149.032 129.573 145.449 133.155 141.044 133.155ZM141.044 123.323C140.025 123.323 139.195 124.152 139.195 125.171C139.195 126.191 140.025 127.02 141.044 127.02C142.064 127.02 142.893 126.191 142.893 125.171C142.893 124.152 142.064 123.323 141.044 123.323Z" fill="#0E71EC"/>
<defs>
<linearGradient id="paint0_linear_800_2486" x1="122.598" y1="0" x2="122.598" y2="174.242" gradientUnits="userSpaceOnUse">
<stop offset="0.003" stop-color="#7E93FF" stop-opacity="0"/>
<stop offset="1" stop-color="#7E83FF" stop-opacity="0.6"/>
</linearGradient>
</defs>
</svg>
