<svg width="255" height="179" viewBox="0 0 255 179" fill="none" xmlns="http://www.w3.org/2000/svg">
<path d="M247.074 12.2653V169.312C247.074 174.426 242.923 178.577 237.809 178.577H9.26527C4.15084 178.577 0 174.426 0 169.312V12.2653C0 7.15084 4.15084 3 9.26527 3H237.809C242.923 3 247.074 7.15084 247.074 12.2653Z" fill="#32528E"/>
<path d="M41.8984 3H205.177V147.451H41.8984V3Z" fill="#A9B8FE"/>
<path d="M59.1947 159.016H20.4868C19.9954 159.016 19.524 158.821 19.1765 158.473C18.829 158.126 18.6338 157.654 18.6338 157.163V129.573C18.6338 129.081 18.829 128.61 19.1765 128.262C19.524 127.915 19.9954 127.72 20.4868 127.72H59.1953C59.6868 127.72 60.1581 127.915 60.5056 128.262C60.8531 128.61 61.0483 129.081 61.0483 129.573V157.163C61.0482 157.654 60.8528 158.126 60.5052 158.473C60.1576 158.821 59.6862 159.016 59.1947 159.016Z" fill="#1C60BC"/>
<path d="M52.76 159.016H37.9355V140.854C37.9355 140.363 38.1308 139.891 38.4783 139.544C38.8258 139.196 39.2971 139.001 39.7886 139.001H50.9069C51.3984 139.001 51.8697 139.196 52.2172 139.544C52.5647 139.891 52.76 140.363 52.76 140.854V159.016Z" fill="#9FB0FE"/>
<path d="M114.839 159.016H76.1314C75.6399 159.016 75.1686 158.821 74.8211 158.473C74.4736 158.126 74.2783 157.654 74.2783 157.163V129.573C74.2783 129.081 74.4736 128.61 74.8211 128.262C75.1686 127.915 75.6399 127.72 76.1314 127.72H114.84C115.331 127.72 115.803 127.915 116.15 128.262C116.498 128.61 116.693 129.081 116.693 129.573V157.163C116.693 157.654 116.497 158.126 116.15 158.473C115.802 158.821 115.331 159.016 114.839 159.016Z" fill="#1C60BC"/>
<path d="M108.405 159.016H93.5801V140.854C93.5801 140.363 93.7753 139.891 94.1228 139.544C94.4703 139.196 94.9417 139.001 95.4331 139.001H106.551C107.043 139.001 107.514 139.196 107.862 139.544C108.209 139.891 108.405 140.363 108.405 140.854V159.016Z" fill="#9FB0FE"/>
<path d="M171.047 159.016H132.339C131.848 159.016 131.377 158.821 131.029 158.473C130.682 158.126 130.486 157.654 130.486 157.163V129.573C130.486 129.081 130.682 128.61 131.029 128.262C131.377 127.915 131.848 127.72 132.339 127.72H171.048C171.539 127.72 172.011 127.915 172.358 128.262C172.706 128.61 172.901 129.081 172.901 129.573V157.163C172.901 157.654 172.705 158.126 172.358 158.473C172.01 158.821 171.539 159.016 171.047 159.016Z" fill="#1C60BC"/>
<path d="M164.612 159.016H149.787V140.854C149.787 140.363 149.982 139.891 150.33 139.544C150.677 139.196 151.149 139.001 151.64 139.001H162.758C163.25 139.001 163.721 139.196 164.069 139.544C164.416 139.891 164.612 140.363 164.612 140.854V159.016Z" fill="#9FB0FE"/>
<path d="M226.693 159.016H187.985C187.493 159.016 187.022 158.821 186.675 158.473C186.327 158.126 186.132 157.654 186.132 157.163V129.573C186.132 129.081 186.327 128.61 186.675 128.262C187.022 127.915 187.493 127.72 187.985 127.72H226.693C227.185 127.72 227.656 127.915 228.004 128.262C228.351 128.61 228.546 129.081 228.546 129.573V157.163C228.546 157.654 228.351 158.126 228.003 158.473C227.656 158.821 227.184 159.016 226.693 159.016Z" fill="#1C60BC"/>
<path d="M220.257 159.016H205.433V140.854C205.433 140.363 205.628 139.891 205.975 139.544C206.323 139.196 206.794 139.001 207.286 139.001H218.404C218.895 139.001 219.367 139.196 219.714 139.544C220.062 139.891 220.257 140.363 220.257 140.854V159.016Z" fill="#9FB0FE"/>
<path d="M247.074 32.7545V12.2653C247.074 7.14837 242.926 3 237.809 3H9.26527C4.14837 3 0 7.14837 0 12.2653V32.7545H247.074Z" fill="#6684FE"/>
<path d="M59.1947 78.39H20.4868C19.9954 78.39 19.524 78.1948 19.1765 77.8472C18.829 77.4997 18.6338 77.0284 18.6338 76.5369V48.9468C18.6338 48.4553 18.829 47.984 19.1765 47.6365C19.524 47.289 19.9954 47.0938 20.4868 47.0938H59.1953C59.6868 47.0938 60.1581 47.289 60.5056 47.6365C60.8531 47.984 61.0483 48.4553 61.0483 48.9468V76.5369C61.0482 77.0284 60.8528 77.4998 60.5052 77.8473C60.1576 78.1948 59.6862 78.39 59.1947 78.39Z" fill="#1C60BC"/>
<path d="M52.76 78.3898H37.9355V60.2281C37.9355 59.7366 38.1308 59.2653 38.4783 58.9177C38.8258 58.5702 39.2971 58.375 39.7886 58.375H50.9069C51.3984 58.375 51.8697 58.5702 52.2172 58.9177C52.5647 59.2653 52.76 59.7366 52.76 60.2281V78.3898Z" fill="#9FB0FE"/>
<path d="M114.839 78.39H76.1314C75.6399 78.39 75.1686 78.1948 74.8211 77.8472C74.4736 77.4997 74.2783 77.0284 74.2783 76.5369V48.9468C74.2783 48.4553 74.4736 47.984 74.8211 47.6365C75.1686 47.289 75.6399 47.0938 76.1314 47.0938H114.84C115.331 47.0938 115.803 47.289 116.15 47.6365C116.498 47.984 116.693 48.4553 116.693 48.9468V76.5369C116.693 77.0284 116.497 77.4998 116.15 77.8473C115.802 78.1948 115.331 78.39 114.839 78.39Z" fill="#1C60BC"/>
<path d="M108.405 78.3898H93.5801V60.2281C93.5801 59.7366 93.7753 59.2653 94.1228 58.9177C94.4703 58.5702 94.9417 58.375 95.4331 58.375H106.551C107.043 58.375 107.514 58.5702 107.862 58.9177C108.209 59.2653 108.405 59.7366 108.405 60.2281V78.3898Z" fill="#9FB0FE"/>
<path d="M171.047 78.39H132.339C131.848 78.39 131.377 78.1948 131.029 77.8472C130.682 77.4997 130.486 77.0284 130.486 76.5369V48.9468C130.486 48.4553 130.682 47.984 131.029 47.6365C131.377 47.289 131.848 47.0938 132.339 47.0938H171.048C171.539 47.0938 172.011 47.289 172.358 47.6365C172.706 47.984 172.901 48.4553 172.901 48.9468V76.5369C172.901 77.0284 172.705 77.4998 172.358 77.8473C172.01 78.1948 171.539 78.39 171.047 78.39Z" fill="#1C60BC"/>
<path d="M164.612 78.3898H149.787V60.2281C149.787 59.7366 149.982 59.2653 150.33 58.9177C150.677 58.5702 151.149 58.375 151.64 58.375H162.758C163.25 58.375 163.721 58.5702 164.069 58.9177C164.416 59.2653 164.612 59.7366 164.612 60.2281V78.3898Z" fill="#9FB0FE"/>
<path d="M226.692 78.39H187.984C187.492 78.39 187.021 78.1948 186.674 77.8472C186.326 77.4997 186.131 77.0284 186.131 76.5369V48.9468C186.131 48.4553 186.326 47.984 186.674 47.6365C187.021 47.289 187.492 47.0938 187.984 47.0938H226.692C227.184 47.0938 227.655 47.289 228.003 47.6365C228.35 47.984 228.545 48.4553 228.545 48.9468V76.5369C228.545 77.0284 228.35 77.4998 228.002 77.8473C227.655 78.1948 227.183 78.39 226.692 78.39Z" fill="#1C60BC"/>
<path d="M220.256 78.3898H205.432V60.2281C205.432 59.7366 205.627 59.2653 205.974 58.9177C206.322 58.5702 206.793 58.375 207.285 58.375H218.403C218.894 58.375 219.366 58.5702 219.713 58.9177C220.061 59.2653 220.256 59.7366 220.256 60.2281V78.3898Z" fill="#9FB0FE"/>
<path d="M59.1947 118.702H20.4868C19.9954 118.702 19.524 118.507 19.1765 118.16C18.829 117.812 18.6338 117.341 18.6338 116.849V89.2593C18.6338 88.7678 18.829 88.2965 19.1765 87.949C19.524 87.6015 19.9954 87.4062 20.4868 87.4062H59.1953C59.6868 87.4062 60.1581 87.6015 60.5056 87.949C60.8531 88.2965 61.0483 88.7678 61.0483 89.2593V116.849C61.0482 117.341 60.8528 117.812 60.5052 118.16C60.1576 118.507 59.6862 118.702 59.1947 118.702Z" fill="#1C60BC"/>
<path d="M52.76 118.702H37.9355V100.541C37.9355 100.049 38.1308 99.5778 38.4783 99.2302C38.8258 98.8827 39.2971 98.6875 39.7886 98.6875H50.9069C51.3984 98.6875 51.8697 98.8827 52.2172 99.2302C52.5647 99.5778 52.76 100.049 52.76 100.541V118.702Z" fill="#9FB0FE"/>
<path d="M114.839 118.702H76.1314C75.6399 118.702 75.1686 118.507 74.8211 118.16C74.4736 117.812 74.2783 117.341 74.2783 116.849V89.2593C74.2783 88.7678 74.4736 88.2965 74.8211 87.949C75.1686 87.6015 75.6399 87.4062 76.1314 87.4062H114.84C115.331 87.4062 115.803 87.6015 116.15 87.949C116.498 88.2965 116.693 88.7678 116.693 89.2593V116.849C116.693 117.341 116.497 117.812 116.15 118.16C115.802 118.507 115.331 118.702 114.839 118.702Z" fill="#1C60BC"/>
<path d="M108.405 118.702H93.5801V100.541C93.5801 100.049 93.7753 99.5778 94.1228 99.2302C94.4703 98.8827 94.9417 98.6875 95.4331 98.6875H106.551C107.043 98.6875 107.514 98.8827 107.862 99.2302C108.209 99.5778 108.405 100.049 108.405 100.541V118.702Z" fill="#9FB0FE"/>
<path d="M171.047 118.702H132.339C131.848 118.702 131.377 118.507 131.029 118.16C130.682 117.812 130.486 117.341 130.486 116.849V89.2593C130.486 88.7678 130.682 88.2965 131.029 87.949C131.377 87.6015 131.848 87.4062 132.339 87.4062H171.048C171.539 87.4062 172.011 87.6015 172.358 87.949C172.706 88.2965 172.901 88.7678 172.901 89.2593V116.849C172.901 117.341 172.705 117.812 172.358 118.16C172.01 118.507 171.539 118.702 171.047 118.702Z" fill="#1C60BC"/>
<path d="M164.612 118.702H149.787V100.541C149.787 100.049 149.982 99.5778 150.33 99.2302C150.677 98.8827 151.149 98.6875 151.64 98.6875H162.758C163.25 98.6875 163.721 98.8827 164.069 99.2302C164.416 99.5778 164.612 100.049 164.612 100.541V118.702Z" fill="#9FB0FE"/>
<path d="M226.692 118.702H187.984C187.492 118.702 187.021 118.507 186.674 118.16C186.326 117.812 186.131 117.341 186.131 116.849V89.2593C186.131 88.7678 186.326 88.2965 186.674 87.949C187.021 87.6015 187.492 87.4062 187.984 87.4062H226.692C227.184 87.4062 227.655 87.6015 228.003 87.949C228.35 88.2965 228.545 88.7678 228.545 89.2593V116.849C228.545 117.341 228.35 117.812 228.002 118.16C227.655 118.507 227.183 118.702 226.692 118.702Z" fill="#1C60BC"/>
<path d="M220.256 118.702H205.432V100.541C205.432 100.049 205.627 99.5778 205.974 99.2302C206.322 98.8827 206.793 98.6875 207.285 98.6875H218.403C218.894 98.6875 219.366 98.8827 219.713 99.2302C220.061 99.5778 220.256 100.049 220.256 100.541V118.702Z" fill="#9FB0FE"/>
<path d="M23.521 21.0096C23.9266 21.0096 24.3282 20.9297 24.7029 20.7745C25.0776 20.6193 25.4181 20.3918 25.7049 20.105C25.9917 19.8182 26.2192 19.4777 26.3744 19.103C26.5296 18.7283 26.6095 18.3267 26.6095 17.9211V17.8316C26.6095 17.0125 26.2841 16.2269 25.7049 15.6477C25.1257 15.0686 24.3401 14.7432 23.521 14.7432C22.7019 14.7432 21.9164 15.0686 21.3372 15.6477C20.758 16.2269 20.4326 17.0125 20.4326 17.8316V17.9211C20.4326 18.7403 20.758 19.5258 21.3372 20.105C21.9164 20.6842 22.7019 21.0096 23.521 21.0096ZM35.4578 21.0096C36.2769 21.0096 37.0625 20.6842 37.6416 20.105C38.2208 19.5258 38.5462 18.7403 38.5462 17.9211V17.8316C38.5462 17.0125 38.2208 16.2269 37.6416 15.6477C37.0625 15.0686 36.2769 14.7432 35.4578 14.7432C34.6387 14.7432 33.8531 15.0686 33.274 15.6477C32.6948 16.2269 32.3694 17.0125 32.3694 17.8316V17.9211C32.3694 18.7403 32.6948 19.5258 33.274 20.105C33.8531 20.6842 34.6387 21.0096 35.4578 21.0096ZM47.3939 21.0096C48.213 21.0096 48.9986 20.6842 49.5778 20.105C50.157 19.5258 50.4824 18.7403 50.4824 17.9211V17.8316C50.4824 17.0125 50.157 16.2269 49.5778 15.6477C48.9986 15.0686 48.213 14.7432 47.3939 14.7432C46.5748 14.7432 45.7893 15.0686 45.2101 15.6477C44.6309 16.2269 44.3055 17.0125 44.3055 17.8316V17.9211C44.3055 18.7403 44.6309 19.5258 45.2101 20.105C45.7893 20.6842 46.5748 21.0096 47.3939 21.0096Z" fill="#056DEA"/>
<path d="M233.514 41.0975C244.595 41.0975 253.578 32.1144 253.578 21.0332C253.578 9.95189 244.595 0.96875 233.514 0.96875C222.432 0.96875 213.449 9.95189 213.449 21.0332C213.449 32.1144 222.432 41.0975 233.514 41.0975Z" fill="#1C60BC"/>
<path d="M244.012 31.5586C249.822 25.7488 249.822 16.3293 244.012 10.5195C238.202 4.7097 228.782 4.70969 222.973 10.5195C217.163 16.3293 217.163 25.7488 222.973 31.5586C228.782 37.3684 238.202 37.3684 244.012 31.5586Z" fill="#B7C5FF"/>
<path d="M230.63 27.7361C230.376 27.7361 230.125 27.6861 229.89 27.5889C229.656 27.4918 229.443 27.3493 229.263 27.1698L225.31 23.217C225.131 23.0375 224.988 22.8243 224.891 22.5897C224.794 22.3552 224.744 22.1038 224.744 21.8499C224.744 21.596 224.794 21.3445 224.891 21.11C224.988 20.8754 225.131 20.6623 225.31 20.4827C225.49 20.3032 225.703 20.1607 225.938 20.0635C226.172 19.9663 226.424 19.9163 226.678 19.9163C226.932 19.9163 227.183 19.9663 227.418 20.0635C227.652 20.1607 227.865 20.3032 228.045 20.4827L230.63 23.0683L238.973 14.7254C239.337 14.3676 239.827 14.1679 240.337 14.1699C240.847 14.172 241.336 14.3755 241.697 14.7362C242.057 15.0969 242.261 15.5855 242.263 16.0957C242.265 16.6058 242.065 17.0961 241.708 17.4597L231.998 27.1695C231.818 27.3491 231.605 27.4916 231.37 27.5888C231.136 27.686 230.884 27.7361 230.63 27.7361Z" fill="#1C60BC"/>
</svg>
