<svg width="245" height="174" viewBox="0 0 245 174" fill="none" xmlns="http://www.w3.org/2000/svg">
<path d="M244.855 9.18206V164.818C244.855 169.886 240.741 174 235.673 174H9.18206C4.11356 174 0 169.886 0 164.818V9.18206C0 4.11356 4.11356 0 9.18206 0H235.672C240.741 0 244.855 4.11356 244.855 9.18206Z" fill="#4766AC"/>
<path d="M244.853 94.3057V164.818C244.853 169.889 240.742 174 235.671 174H134.803V96.1421C134.803 95.655 134.996 95.1879 135.341 94.8435C135.685 94.4992 136.152 94.3057 136.639 94.3057H244.853Z" fill="#DCE3FD"/>
<path d="M244.855 29.4882V9.18303C244.855 4.11209 240.744 0.000976562 235.673 0.000976562H9.18206C4.11111 0.000976562 0 4.11209 0 9.18303V29.4882H244.855Z" fill="#6583FE"/>
<path d="M40.2944 102.779H26.3732C25.5602 102.779 24.7804 102.456 24.2055 101.881C23.6306 101.306 23.3076 100.526 23.3076 99.7131C23.3076 98.9 23.6306 98.1203 24.2055 97.5454C24.7804 96.9705 25.5602 96.6475 26.3732 96.6475H40.2944C41.1075 96.6475 41.8872 96.9705 42.4621 97.5454C43.037 98.1203 43.36 98.9 43.36 99.7131C43.36 100.526 43.037 101.306 42.4621 101.881C41.8872 102.456 41.1075 102.779 40.2944 102.779Z" fill="#6583FE"/>
<path d="M110.081 102.779H53.922C53.109 102.779 52.3292 102.456 51.7543 101.881C51.1794 101.306 50.8564 100.526 50.8564 99.7131C50.8564 98.9 51.1794 98.1203 51.7543 97.5454C52.3292 96.9705 53.109 96.6475 53.922 96.6475H110.081C110.894 96.6475 111.674 96.9705 112.248 97.5454C112.823 98.1203 113.146 98.9 113.146 99.7131C113.146 100.526 112.823 101.306 112.248 101.881C111.674 102.456 110.894 102.779 110.081 102.779Z" fill="#9FB0FE"/>
<path d="M92.0463 66.7171H63.4337C62.6207 66.7171 61.841 66.3941 61.2661 65.8192C60.6911 65.2443 60.3682 64.4646 60.3682 63.6515C60.3682 62.8385 60.6911 62.0587 61.2661 61.4838C61.841 60.9089 62.6207 60.5859 63.4337 60.5859H92.0463C92.8593 60.5859 93.639 60.9089 94.214 61.4838C94.7889 62.0587 95.1118 62.8385 95.1118 63.6515C95.1118 64.4646 94.7889 65.2443 94.214 65.8192C93.639 66.3941 92.8593 66.7171 92.0463 66.7171Z" fill="#B7C5FF"/>
<path d="M92.0463 77.305H63.4337C62.6207 77.305 61.841 76.982 61.2661 76.4071C60.6911 75.8322 60.3682 75.0525 60.3682 74.2394C60.3682 73.4264 60.6911 72.6466 61.2661 72.0717C61.841 71.4968 62.6207 71.1738 63.4337 71.1738H92.0463C92.8593 71.1738 93.639 71.4968 94.214 72.0717C94.7889 72.6466 95.1118 73.4264 95.1118 74.2394C95.1118 75.0525 94.7889 75.8322 94.214 76.4071C93.639 76.982 92.8593 77.305 92.0463 77.305Z" fill="#B7C5FF"/>
<path d="M159.725 125.79H149.931C149.444 125.79 148.977 125.596 148.633 125.252C148.288 124.907 148.095 124.44 148.095 123.953V86.6948C148.095 86.2078 148.288 85.7407 148.633 85.3963C148.977 85.0519 149.444 84.8584 149.931 84.8584H159.725C160.212 84.8584 160.679 85.0519 161.024 85.3963C161.368 85.7407 161.562 86.2078 161.562 86.6948V123.953C161.562 124.44 161.368 124.907 161.024 125.252C160.679 125.596 160.212 125.79 159.725 125.79Z" fill="#9CAEFE"/>
<path d="M139.7 125.79H129.906C129.419 125.79 128.952 125.597 128.607 125.253C128.263 124.908 128.069 124.441 128.069 123.954V100.903C128.069 100.416 128.263 99.9487 128.607 99.6043C128.952 99.2599 129.419 99.0664 129.906 99.0664H139.7C140.187 99.0664 140.654 99.2599 140.998 99.6043C141.343 99.9487 141.536 100.416 141.536 100.903V123.954C141.536 124.441 141.343 124.908 140.998 125.253C140.654 125.597 140.187 125.79 139.7 125.79Z" fill="#6685FC"/>
<path d="M179.749 125.791H169.955C169.468 125.791 169 125.597 168.656 125.253C168.312 124.908 168.118 124.441 168.118 123.954V75.9995C168.118 75.5125 168.312 75.0454 168.656 74.701C169 74.3566 169.468 74.1631 169.955 74.1631H179.749C180.236 74.1631 180.703 74.3566 181.047 74.701C181.392 75.0454 181.585 75.5125 181.585 75.9995V123.954C181.585 124.441 181.392 124.908 181.047 125.253C180.703 125.597 180.236 125.791 179.749 125.791Z" fill="#9BAEFE"/>
<path d="M199.775 125.79H189.981C189.494 125.79 189.027 125.597 188.682 125.253C188.338 124.908 188.145 124.441 188.145 123.954V64.6587C188.145 64.1716 188.338 63.7045 188.682 63.3601C189.027 63.0158 189.494 62.8223 189.981 62.8223H199.775C200.262 62.8223 200.729 63.0158 201.074 63.3601C201.418 63.7045 201.612 64.1716 201.612 64.6587V123.954C201.612 124.441 201.418 124.908 201.074 125.253C200.729 125.597 200.262 125.79 199.775 125.79Z" fill="#056DEA"/>
<path d="M219.798 125.79H210.003C209.516 125.79 209.049 125.596 208.705 125.252C208.36 124.907 208.167 124.44 208.167 123.953V53.9614C208.167 53.4744 208.36 53.0073 208.705 52.6629C209.049 52.3185 209.516 52.125 210.003 52.125H219.798C220.285 52.125 220.752 52.3185 221.096 52.6629C221.441 53.0073 221.634 53.4744 221.634 53.9614V123.953C221.634 124.44 221.441 124.907 221.096 125.252C220.752 125.596 220.285 125.79 219.798 125.79Z" fill="#056DEA"/>
<path d="M44.583 60.3462C44.583 54.7384 40.0207 50.1768 34.4136 50.1768C28.8064 50.1768 24.2441 54.739 24.2441 60.3462C24.2441 63.1118 25.357 65.6198 27.1548 67.455C25.3576 69.2901 24.2441 71.7981 24.2441 74.5637C24.2441 75.3754 24.5666 76.1539 25.1406 76.7279C25.7146 77.3019 26.4931 77.6244 27.3048 77.6244C28.1166 77.6244 28.8951 77.3019 29.4691 76.7279C30.043 76.1539 30.3655 75.3754 30.3655 74.5637C30.3655 72.3318 32.1817 70.5156 34.4136 70.5156C36.6454 70.5156 38.4616 72.3318 38.4616 74.5637C38.4616 75.3754 38.7841 76.1539 39.3581 76.7279C39.9321 77.3019 40.7106 77.6244 41.5223 77.6244C42.3341 77.6244 43.1126 77.3019 43.6866 76.7279C44.2605 76.1539 44.583 75.3754 44.583 74.5637C44.583 71.7981 43.4701 69.2901 41.6723 67.455C43.4701 65.6198 44.583 63.1112 44.583 60.3462ZM34.4136 56.2975C36.6454 56.2975 38.4616 58.1137 38.4616 60.3456C38.4616 62.5774 36.6454 64.3936 34.4136 64.3936C32.1817 64.3936 30.3655 62.5774 30.3655 60.3456C30.3655 58.1137 32.1811 56.2975 34.4136 56.2975Z" fill="#B7C5FF"/>
<path d="M244.855 9.18206V164.818C244.855 169.886 240.741 174 235.673 174H9.18206C4.11356 174 0 169.886 0 164.818V9.18206C0 4.11356 4.11356 0 9.18206 0H235.672C240.741 0 244.855 4.11356 244.855 9.18206Z" fill="url(#paint0_linear_800_2499)"/>
<path d="M23.3068 17.8508C24.1185 17.8508 24.897 17.5283 25.471 16.9543C26.045 16.3803 26.3675 15.6018 26.3675 14.7901V14.7013C26.3675 13.8896 26.045 13.1111 25.471 12.5371C24.897 11.9631 24.1185 11.6406 23.3068 11.6406C22.495 11.6406 21.7165 11.9631 21.1425 12.5371C20.5686 13.1111 20.2461 13.8896 20.2461 14.7013V14.7901C20.2461 15.6018 20.5686 16.3803 21.1425 16.9543C21.7165 17.5283 22.495 17.8508 23.3068 17.8508ZM35.1363 17.8508C35.9481 17.8508 36.7266 17.5283 37.3006 16.9543C37.8746 16.3803 38.197 15.6018 38.197 14.7901V14.7013C38.197 13.8896 37.8746 13.1111 37.3006 12.5371C36.7266 11.9631 35.9481 11.6406 35.1363 11.6406C34.3246 11.6406 33.5461 11.9631 32.9721 12.5371C32.3981 13.1111 32.0756 13.8896 32.0756 14.7013V14.7901C32.0756 15.6018 32.3981 16.3803 32.9721 16.9543C33.5461 17.5283 34.3246 17.8508 35.1363 17.8508ZM46.9653 17.8508C47.777 17.8508 48.5555 17.5283 49.1295 16.9543C49.7035 16.3803 50.026 15.6018 50.026 14.7901V14.7013C50.026 13.8896 49.7035 13.1111 49.1295 12.5371C48.5555 11.9631 47.777 11.6406 46.9653 11.6406C46.1535 11.6406 45.375 11.9631 44.801 12.5371C44.2271 13.1111 43.9046 13.8896 43.9046 14.7013V14.7901C43.9046 15.6018 44.2271 16.3803 44.801 16.9543C45.375 17.5283 46.1535 17.8508 46.9653 17.8508Z" fill="#2D58E0"/>
<defs>
<linearGradient id="paint0_linear_800_2499" x1="122.427" y1="0" x2="122.427" y2="174" gradientUnits="userSpaceOnUse">
<stop offset="0.003" stop-color="#7E93FF" stop-opacity="0"/>
<stop offset="1" stop-color="#7E83FF" stop-opacity="0.6"/>
</linearGradient>
</defs>
</svg>
