<svg width="111" height="24" viewBox="0 0 111 24" fill="none" xmlns="http://www.w3.org/2000/svg">
<path d="M28.1484 23.9811V0.769531H38.2704C40.8191 0.769531 42.821 1.39532 44.2772 2.64689C45.7344 3.87575 46.4625 5.73041 46.4625 8.21084C46.4625 9.98592 46.064 11.4537 45.2672 12.6143C44.4944 13.7521 43.3897 14.5713 41.9565 15.072L47.4525 23.9811H42.7075L37.7584 15.6523H32.638V23.9811H28.1484ZM32.638 12.034H37.9626C39.4875 12.034 40.5801 11.7154 41.2394 11.0782C41.9227 10.4183 42.2633 9.47387 42.2633 8.24501C42.2633 6.9024 41.9227 5.93518 41.2394 5.34356C40.5801 4.72913 39.4875 4.42196 37.9626 4.42196H32.638V12.034Z" fill="white"/>
<path d="M51.3203 23.9811V0.769531H57.0837V23.9811H51.3203Z" fill="white"/>
<path d="M60.9531 4.66091V0.769531H81.5365V4.66091H73.3444V23.9811H69.1801V4.66091H60.9531Z" fill="white"/>
<path d="M96.1591 21.8647L89.2976 5.85561V23.9811H85.4062V0.769531H91.3803L98.173 16.847L104.863 0.769531H110.735V23.9811H106.673V5.82144L99.8453 21.8647H96.1591Z" fill="white"/>
<path d="M0.75 23.9995V22.4805H25.2553V23.9995C16.3461 23.9995 9.65923 23.9995 0.75 23.9995Z" fill="white"/>
<path d="M0.75 21.5501V19.2715H25.2553V21.5501H0.75Z" fill="white"/>
<path d="M0.75 17.9509V14.1533H25.2553V17.9509H0.75Z" fill="white"/>
<path d="M0.75 12.0888V0.75H25.2553V12.0888H0.75Z" fill="white"/>
</svg>
